<svg width="240" height="240" viewBox="0 0 240 240" fill="none" xmlns="http://www.w3.org/2000/svg">
<g clip-path="url(#clip0_3888_8217)">
<path fill-rule="evenodd" clip-rule="evenodd" d="M0 0H15C10.0294 0 6 4.02944 6 9C6 13.9706 10.0294 18 15 18C19.9706 18 24 13.9706 24 9C24 4.02944 19.9706 0 15 0H45C40.0294 0 36 4.02944 36 9C36 13.9706 40.0294 18 45 18C49.9706 18 54 13.9706 54 9C54 4.02944 49.9706 0 45 0H75C70.0294 0 66 4.02944 66 9C66 13.9706 70.0294 18 75 18C79.9706 18 84 13.9706 84 9C84 4.02944 79.9706 0 75 0H105C100.029 0 96 4.02944 96 9C96 13.9706 100.029 18 105 18C109.971 18 114 13.9706 114 9C114 4.02944 109.971 0 105 0H135C130.029 0 126 4.02944 126 9C126 13.9706 130.029 18 135 18C139.971 18 144 13.9706 144 9C144 4.02944 139.971 0 135 0H165C160.029 0 156 4.02944 156 9C156 13.9706 160.029 18 165 18C169.971 18 174 13.9706 174 9C174 4.02944 169.971 0 165 0H195C190.029 0 186 4.02944 186 9C186 13.9706 190.029 18 195 18C199.971 18 204 13.9706 204 9C204 4.02944 199.971 0 195 0H225C220.029 0 216 4.02944 216 9C216 13.9706 220.029 18 225 18C229.971 18 234 13.9706 234 9C234 4.02944 229.971 0 225 0H240V30.0549C239.672 30.0186 239.338 30 239 30C234.029 30 230 34.0294 230 39C230 43.9706 234.029 48 239 48C239.338 48 239.672 47.9814 240 47.9451V90.0549C239.672 90.0186 239.338 90 239 90C234.029 90 230 94.0294 230 99C230 103.971 234.029 108 239 108C239.338 108 239.672 107.981 240 107.945V150.055C239.672 150.019 239.338 150 239 150C234.029 150 230 154.029 230 159C230 163.971 234.029 168 239 168C239.338 168 239.672 167.981 240 167.945V210.055C239.672 210.019 239.338 210 239 210C234.029 210 230 214.029 230 219C230 223.971 234.029 228 239 228C239.338 228 239.672 227.981 240 227.945V240H0V227.945C4.49995 227.448 8 223.633 8 219C8 214.367 4.49995 210.552 0 210.055V167.945C4.49995 167.448 8 163.633 8 159C8 154.367 4.49995 150.552 0 150.055V107.945C4.49995 107.448 8 103.633 8 99C8 94.3674 4.49995 90.5524 0 90.0549V47.9451C4.49995 47.4476 8 43.6326 8 39C8 34.3674 4.49995 30.5524 0 30.0549V0ZM38 99C38 103.971 33.9706 108 29 108C24.0294 108 20 103.971 20 99C20 94.0294 24.0294 90 29 90C33.9706 90 38 94.0294 38 99ZM89 108C93.9706 108 98 103.971 98 99C98 94.0294 93.9706 90 89 90C84.0294 90 80 94.0294 80 99C80 103.971 84.0294 108 89 108ZM158 99C158 103.971 153.971 108 149 108C144.029 108 140 103.971 140 99C140 94.0294 144.029 90 149 90C153.971 90 158 94.0294 158 99ZM209 108C213.971 108 218 103.971 218 99C218 94.0294 213.971 90 209 90C204.029 90 200 94.0294 200 99C200 103.971 204.029 108 209 108ZM68 99C68 103.971 63.9706 108 59 108C54.0294 108 50 103.971 50 99C50 94.0294 54.0294 90 59 90C63.9706 90 68 94.0294 68 99ZM119 108C123.971 108 128 103.971 128 99C128 94.0294 123.971 90 119 90C114.029 90 110 94.0294 110 99C110 103.971 114.029 108 119 108ZM188 99C188 103.971 183.971 108 179 108C174.029 108 170 103.971 170 99C170 94.0294 174.029 90 179 90C183.971 90 188 94.0294 188 99ZM45 78C49.9706 78 54 73.9706 54 69C54 64.0294 49.9706 60 45 60C40.0294 60 36 64.0294 36 69C36 73.9706 40.0294 78 45 78ZM114 69C114 73.9706 109.971 78 105 78C100.029 78 96 73.9706 96 69C96 64.0294 100.029 60 105 60C109.971 60 114 64.0294 114 69ZM165 78C169.971 78 174 73.9706 174 69C174 64.0294 169.971 60 165 60C160.029 60 156 64.0294 156 69C156 73.9706 160.029 78 165 78ZM234 69C234 73.9706 229.971 78 225 78C220.029 78 216 73.9706 216 69C216 64.0294 220.029 60 225 60C229.971 60 234 64.0294 234 69ZM15 78C19.9706 78 24 73.9706 24 69C24 64.0294 19.9706 60 15 60C10.0294 60 6 64.0294 6 69C6 73.9706 10.0294 78 15 78ZM84 69C84 73.9706 79.9706 78 75 78C70.0294 78 66 73.9706 66 69C66 64.0294 70.0294 60 75 60C79.9706 60 84 64.0294 84 69ZM135 78C139.971 78 144 73.9706 144 69C144 64.0294 139.971 60 135 60C130.029 60 126 64.0294 126 69C126 73.9706 130.029 78 135 78ZM204 69C204 73.9706 199.971 78 195 78C190.029 78 186 73.9706 186 69C186 64.0294 190.029 60 195 60C199.971 60 204 64.0294 204 69ZM29 48C33.9706 48 38 43.9706 38 39C38 34.0294 33.9706 30 29 30C24.0294 30 20 34.0294 20 39C20 43.9706 24.0294 48 29 48ZM98 39C98 43.9706 93.9706 48 89 48C84.0294 48 80 43.9706 80 39C80 34.0294 84.0294 30 89 30C93.9706 30 98 34.0294 98 39ZM149 48C153.971 48 158 43.9706 158 39C158 34.0294 153.971 30 149 30C144.029 30 140 34.0294 140 39C140 43.9706 144.029 48 149 48ZM218 39C218 43.9706 213.971 48 209 48C204.029 48 200 43.9706 200 39C200 34.0294 204.029 30 209 30C213.971 30 218 34.0294 218 39ZM59 48C63.9706 48 68 43.9706 68 39C68 34.0294 63.9706 30 59 30C54.0294 30 50 34.0294 50 39C50 43.9706 54.0294 48 59 48ZM128 39C128 43.9706 123.971 48 119 48C114.029 48 110 43.9706 110 39C110 34.0294 114.029 30 119 30C123.971 30 128 34.0294 128 39ZM179 48C183.971 48 188 43.9706 188 39C188 34.0294 183.971 30 179 30C174.029 30 170 34.0294 170 39C170 43.9706 174.029 48 179 48ZM38 219C38 223.971 33.9706 228 29 228C24.0294 228 20 223.971 20 219C20 214.029 24.0294 210 29 210C33.9706 210 38 214.029 38 219ZM89 228C93.9706 228 98 223.971 98 219C98 214.029 93.9706 210 89 210C84.0294 210 80 214.029 80 219C80 223.971 84.0294 228 89 228ZM158 219C158 223.971 153.971 228 149 228C144.029 228 140 223.971 140 219C140 214.029 144.029 210 149 210C153.971 210 158 214.029 158 219ZM209 228C213.971 228 218 223.971 218 219C218 214.029 213.971 210 209 210C204.029 210 200 214.029 200 219C200 223.971 204.029 228 209 228ZM68 219C68 223.971 63.9706 228 59 228C54.0294 228 50 223.971 50 219C50 214.029 54.0294 210 59 210C63.9706 210 68 214.029 68 219ZM119 228C123.971 228 128 223.971 128 219C128 214.029 123.971 210 119 210C114.029 210 110 214.029 110 219C110 223.971 114.029 228 119 228ZM188 219C188 223.971 183.971 228 179 228C174.029 228 170 223.971 170 219C170 214.029 174.029 210 179 210C183.971 210 188 214.029 188 219ZM45 198C49.9706 198 54 193.971 54 189C54 184.029 49.9706 180 45 180C40.0294 180 36 184.029 36 189C36 193.971 40.0294 198 45 198ZM114 189C114 193.971 109.971 198 105 198C100.029 198 96 193.971 96 189C96 184.029 100.029 180 105 180C109.971 180 114 184.029 114 189ZM165 198C169.971 198 174 193.971 174 189C174 184.029 169.971 180 165 180C160.029 180 156 184.029 156 189C156 193.971 160.029 198 165 198ZM234 189C234 193.971 229.971 198 225 198C220.029 198 216 193.971 216 189C216 184.029 220.029 180 225 180C229.971 180 234 184.029 234 189ZM15 198C19.9706 198 24 193.971 24 189C24 184.029 19.9706 180 15 180C10.0294 180 6 184.029 6 189C6 193.971 10.0294 198 15 198ZM84 189C84 193.971 79.9706 198 75 198C70.0294 198 66 193.971 66 189C66 184.029 70.0294 180 75 180C79.9706 180 84 184.029 84 189ZM135 198C139.971 198 144 193.971 144 189C144 184.029 139.971 180 135 180C130.029 180 126 184.029 126 189C126 193.971 130.029 198 135 198ZM204 189C204 193.971 199.971 198 195 198C190.029 198 186 193.971 186 189C186 184.029 190.029 180 195 180C199.971 180 204 184.029 204 189ZM29 168C33.9706 168 38 163.971 38 159C38 154.029 33.9706 150 29 150C24.0294 150 20 154.029 20 159C20 163.971 24.0294 168 29 168ZM98 159C98 163.971 93.9706 168 89 168C84.0294 168 80 163.971 80 159C80 154.029 84.0294 150 89 150C93.9706 150 98 154.029 98 159ZM149 168C153.971 168 158 163.971 158 159C158 154.029 153.971 150 149 150C144.029 150 140 154.029 140 159C140 163.971 144.029 168 149 168ZM218 159C218 163.971 213.971 168 209 168C204.029 168 200 163.971 200 159C200 154.029 204.029 150 209 150C213.971 150 218 154.029 218 159ZM59 168C63.9706 168 68 163.971 68 159C68 154.029 63.9706 150 59 150C54.0294 150 50 154.029 50 159C50 163.971 54.0294 168 59 168ZM128 159C128 163.971 123.971 168 119 168C114.029 168 110 163.971 110 159C110 154.029 114.029 150 119 150C123.971 150 128 154.029 128 159ZM179 168C183.971 168 188 163.971 188 159C188 154.029 183.971 150 179 150C174.029 150 170 154.029 170 159C170 163.971 174.029 168 179 168ZM54 129C54 133.971 49.9706 138 45 138C40.0294 138 36 133.971 36 129C36 124.029 40.0294 120 45 120C49.9706 120 54 124.029 54 129ZM105 138C109.971 138 114 133.971 114 129C114 124.029 109.971 120 105 120C100.029 120 96 124.029 96 129C96 133.971 100.029 138 105 138ZM174 129C174 133.971 169.971 138 165 138C160.029 138 156 133.971 156 129C156 124.029 160.029 120 165 120C169.971 120 174 124.029 174 129ZM225 138C229.971 138 234 133.971 234 129C234 124.029 229.971 120 225 120C220.029 120 216 124.029 216 129C216 133.971 220.029 138 225 138ZM24 129C24 133.971 19.9706 138 15 138C10.0294 138 6 133.971 6 129C6 124.029 10.0294 120 15 120C19.9706 120 24 124.029 24 129ZM75 138C79.9706 138 84 133.971 84 129C84 124.029 79.9706 120 75 120C70.0294 120 66 124.029 66 129C66 133.971 70.0294 138 75 138ZM144 129C144 133.971 139.971 138 135 138C130.029 138 126 133.971 126 129C126 124.029 130.029 120 135 120C139.971 120 144 124.029 144 129ZM195 138C199.971 138 204 133.971 204 129C204 124.029 199.971 120 195 120C190.029 120 186 124.029 186 129C186 133.971 190.029 138 195 138Z" fill="white"/>
</g>
<defs>
<clipPath id="clip0_3888_8217">
<rect width="240" height="240" fill="white"/>
</clipPath>
</defs>
</svg>
