<svg width="240" height="240" viewBox="0 0 240 240" fill="none" xmlns="http://www.w3.org/2000/svg">
<circle cx="24" cy="24" r="12" fill="white"/>
<circle cx="72" cy="24" r="12" fill="white"/>
<circle cx="120" cy="24" r="12" fill="white"/>
<circle cx="168" cy="24" r="12" fill="white"/>
<circle cx="216" cy="24" r="12" fill="white"/>
<circle cx="24" cy="24" r="12" fill="white"/>
<circle cx="72" cy="24" r="12" fill="white"/>
<circle cx="120" cy="24" r="12" fill="white"/>
<circle cx="168" cy="24" r="12" fill="white"/>
<circle cx="216" cy="24" r="12" fill="white"/>
<circle cx="24" cy="72" r="12" fill="white"/>
<circle cx="72" cy="72" r="12" fill="white"/>
<circle cx="120" cy="72" r="12" fill="white"/>
<circle cx="168" cy="72" r="12" fill="white"/>
<circle cx="216" cy="72" r="12" fill="white"/>
<circle cx="24" cy="120" r="12" fill="white"/>
<circle cx="72" cy="120" r="12" fill="white"/>
<circle cx="120" cy="120" r="12" fill="white"/>
<circle cx="168" cy="120" r="12" fill="white"/>
<circle cx="216" cy="120" r="12" fill="white"/>
<circle cx="24" cy="168" r="12" fill="white"/>
<circle cx="72" cy="168" r="12" fill="white"/>
<circle cx="120" cy="168" r="12" fill="white"/>
<circle cx="168" cy="168" r="12" fill="white"/>
<circle cx="216" cy="168" r="12" fill="white"/>
<circle cx="24" cy="216" r="12" fill="white"/>
<circle cx="72" cy="216" r="12" fill="white"/>
<circle cx="120" cy="216" r="12" fill="white"/>
<circle cx="168" cy="216" r="12" fill="white"/>
<circle cx="216" cy="216" r="12" fill="white"/>
</svg>
