<svg width="240" height="240" viewBox="0 0 240 240" fill="none" xmlns="http://www.w3.org/2000/svg">
<g clip-path="url(#clip0_3169_7767)">
<circle cx="29" cy="99" r="9" fill="#D313B7"/>
<circle cx="89" cy="99" r="9" fill="#D313B7"/>
<circle cx="149" cy="99" r="9" fill="#D313B7"/>
<circle cx="209" cy="99" r="9" fill="#D313B7"/>
<circle cx="239" cy="99" r="9" fill="#D313B7"/>
<circle cx="-1" cy="99" r="9" fill="#D313B7"/>
<circle cx="59" cy="99" r="9" fill="#D313B7"/>
<circle cx="119" cy="99" r="9" fill="#D313B7"/>
<circle cx="179" cy="99" r="9" fill="#D313B7"/>
<circle cx="45" cy="69" r="9" fill="#D313B7"/>
<circle cx="105" cy="69" r="9" fill="#D313B7"/>
<circle cx="165" cy="69" r="9" fill="#D313B7"/>
<circle cx="225" cy="69" r="9" fill="#D313B7"/>
<circle cx="15" cy="69" r="9" fill="#D313B7"/>
<circle cx="75" cy="69" r="9" fill="#D313B7"/>
<circle cx="135" cy="69" r="9" fill="#D313B7"/>
<circle cx="195" cy="69" r="9" fill="#D313B7"/>
<circle cx="29" cy="39" r="9" fill="#D313B7"/>
<circle cx="89" cy="39" r="9" fill="#D313B7"/>
<circle cx="149" cy="39" r="9" fill="#D313B7"/>
<circle cx="209" cy="39" r="9" fill="#D313B7"/>
<circle cx="239" cy="39" r="9" fill="#D313B7"/>
<circle cx="-1" cy="39" r="9" fill="#D313B7"/>
<circle cx="59" cy="39" r="9" fill="#D313B7"/>
<circle cx="119" cy="39" r="9" fill="#D313B7"/>
<circle cx="179" cy="39" r="9" fill="#D313B7"/>
<circle cx="45" cy="9" r="9" fill="#D313B7"/>
<circle cx="105" cy="9" r="9" fill="#D313B7"/>
<circle cx="165" cy="9" r="9" fill="#D313B7"/>
<circle cx="225" cy="9" r="9" fill="#D313B7"/>
<circle cx="15" cy="9" r="9" fill="#D313B7"/>
<circle cx="75" cy="9" r="9" fill="#D313B7"/>
<circle cx="135" cy="9" r="9" fill="#D313B7"/>
<circle cx="195" cy="9" r="9" fill="#D313B7"/>
<circle cx="29" cy="219" r="9" fill="#D313B7"/>
<circle cx="89" cy="219" r="9" fill="#D313B7"/>
<circle cx="149" cy="219" r="9" fill="#D313B7"/>
<circle cx="209" cy="219" r="9" fill="#D313B7"/>
<circle cx="239" cy="219" r="9" fill="#D313B7"/>
<circle cx="-1" cy="219" r="9" fill="#D313B7"/>
<circle cx="59" cy="219" r="9" fill="#D313B7"/>
<circle cx="119" cy="219" r="9" fill="#D313B7"/>
<circle cx="179" cy="219" r="9" fill="#D313B7"/>
<circle cx="45" cy="189" r="9" fill="#D313B7"/>
<circle cx="105" cy="189" r="9" fill="#D313B7"/>
<circle cx="165" cy="189" r="9" fill="#D313B7"/>
<circle cx="225" cy="189" r="9" fill="#D313B7"/>
<circle cx="15" cy="189" r="9" fill="#D313B7"/>
<circle cx="75" cy="189" r="9" fill="#D313B7"/>
<circle cx="135" cy="189" r="9" fill="#D313B7"/>
<circle cx="195" cy="189" r="9" fill="#D313B7"/>
<circle cx="29" cy="159" r="9" fill="#D313B7"/>
<circle cx="89" cy="159" r="9" fill="#D313B7"/>
<circle cx="149" cy="159" r="9" fill="#D313B7"/>
<circle cx="209" cy="159" r="9" fill="#D313B7"/>
<circle cx="239" cy="159" r="9" fill="#D313B7"/>
<circle cx="-1" cy="159" r="9" fill="#D313B7"/>
<circle cx="59" cy="159" r="9" fill="#D313B7"/>
<circle cx="119" cy="159" r="9" fill="#D313B7"/>
<circle cx="179" cy="159" r="9" fill="#D313B7"/>
<circle cx="45" cy="129" r="9" fill="#D313B7"/>
<circle cx="105" cy="129" r="9" fill="#D313B7"/>
<circle cx="165" cy="129" r="9" fill="#D313B7"/>
<circle cx="225" cy="129" r="9" fill="#D313B7"/>
<circle cx="15" cy="129" r="9" fill="#D313B7"/>
<circle cx="75" cy="129" r="9" fill="#D313B7"/>
<circle cx="135" cy="129" r="9" fill="#D313B7"/>
<circle cx="195" cy="129" r="9" fill="#D313B7"/>
</g>
<defs>
<clipPath id="clip0_3169_7767">
<rect width="240" height="240" fill="white"/>
</clipPath>
</defs>
</svg>
