<svg width="1722" height="2353" viewBox="0 0 1722 2353" fill="none" xmlns="http://www.w3.org/2000/svg">
<g clip-path="url(#clip0_300_15)">
<path d="M185.508 2346.69L-14.8207 2282.99C-75.8332 2263.58 -117.271 2206.92 -117.271 2142.9L-117.273 504.986C-117.273 497.499 -111.204 491.431 -103.718 491.431L529.224 491.432L1722.7 491.431C1728.26 491.431 1732.76 495.933 1732.76 501.486L1732.76 1476.06C1732.76 1497.32 1728.14 1518.33 1719.24 1537.64L1631.19 1728.5C1602.52 1790.63 1534.78 1824.77 1467.79 1810.84L1235.73 1762.6C1171.29 1749.21 1105.8 1780.27 1075.42 1838.65L985.976 2010.48C955.659 2068.73 890.39 2099.8 826.064 2086.61L578.534 2035.88C505.706 2020.95 433.197 2062.74 409.611 2133.24L369.463 2253.25C343.977 2329.42 262.06 2371.04 185.508 2346.69Z" fill="white"/>
<rect width="1722" height="564" fill="white"/>
</g>
<defs>
<clipPath id="clip0_300_15">
<rect width="1722" height="2353" fill="white"/>
</clipPath>
</defs>
</svg>
