<svg width="1722" height="383" viewBox="0 0 1722 383" fill="none" xmlns="http://www.w3.org/2000/svg">
<g clip-path="url(#clip0_309_2)">
<path d="M40.8076 354.074L-140.339 237.495C-194.177 202.846 -219.398 137.338 -202.695 75.5315L229.73 -1524.62C231.705 -1531.92 239.23 -1536.25 246.539 -1534.27L864.434 -1367.29L2029.54 -1052.43C2034.96 -1050.96 2038.17 -1045.38 2036.71 -1039.96L1779.5 -88.2035C1773.95 -67.6774 1764.02 -48.599 1750.38 -32.2843L1613 132.097C1569.12 184.6 1494.82 199.883 1433.78 168.961L1217.67 59.4854C1158.96 29.7434 1087.64 42.6499 1043.07 91.08L908.732 237.068C864.269 285.386 793.154 298.357 734.496 268.847L503.812 152.792C437.4 119.382 356.499 140.812 315.336 202.718L242.771 311.853C198.294 378.745 108.357 397.547 40.8076 354.074Z" fill="white"/>
</g>
<defs>
<clipPath id="clip0_309_2">
<rect width="1722" height="383" fill="white"/>
</clipPath>
</defs>
</svg>
