<svg width="1722" height="1083" viewBox="0 0 1722 1083" fill="none" xmlns="http://www.w3.org/2000/svg">
<g clip-path="url(#clip0_272_13)">
<path d="M186.508 1063.69L-13.8207 999.986C-74.8332 980.583 -116.271 923.923 -116.271 859.899L-116.273 -778.014C-116.273 -785.501 -110.204 -791.569 -102.718 -791.569L530.224 -791.568L1723.7 -791.569C1729.26 -791.569 1733.76 -787.067 1733.76 -781.514L1733.76 193.06C1733.76 214.322 1729.14 235.331 1720.24 254.638L1632.19 445.498C1603.52 507.63 1535.78 541.769 1468.79 527.842L1236.73 479.601C1172.29 466.205 1106.8 497.272 1076.42 555.652L986.976 727.481C956.659 785.725 891.39 816.8 827.064 803.614L579.534 752.876C506.706 737.948 434.197 779.742 410.611 850.243L370.463 970.246C344.977 1046.42 263.06 1088.04 186.508 1063.69Z" fill="white"/>
</g>
<defs>
<clipPath id="clip0_272_13">
<rect width="1722" height="1083" fill="white"/>
</clipPath>
</defs>
</svg>
