<svg width="240" height="240" viewBox="0 0 240 240" fill="none" xmlns="http://www.w3.org/2000/svg">
<g clip-path="url(#clip0_3132_11241)">
<path d="M30 0L26.8817 54.309L0 57.9921L26.8817 61.6752L30 120L33.1183 61.6752L60 57.9921L33.1183 54.309L30 0Z" fill="white"/>
<path d="M90 0L86.8817 54.309L60 57.9921L86.8817 61.6752L90 120L93.1183 61.6752L120 57.9921L93.1183 54.309L90 0Z" fill="white"/>
<path d="M150 0L146.882 54.309L120 57.9921L146.882 61.6752L150 120L153.118 61.6752L180 57.9921L153.118 54.309L150 0Z" fill="white"/>
<path d="M210 0L206.882 54.309L180 57.9921L206.882 61.6752L210 120L213.118 61.6752L240 57.9921L213.118 54.309L210 0Z" fill="white"/>
<path d="M30 120L26.8817 174.309L0 177.992L26.8817 181.675L30 240L33.1183 181.675L60 177.992L33.1183 174.309L30 120Z" fill="white"/>
<path d="M90 120L86.8817 174.309L60 177.992L86.8817 181.675L90 240L93.1183 181.675L120 177.992L93.1183 174.309L90 120Z" fill="white"/>
<path d="M150 120L146.882 174.309L120 177.992L146.882 181.675L150 240L153.118 181.675L180 177.992L153.118 174.309L150 120Z" fill="white"/>
<path d="M210 120L206.882 174.309L180 177.992L206.882 181.675L210 240L213.118 181.675L240 177.992L213.118 174.309L210 120Z" fill="white"/>
</g>
<defs>
<clipPath id="clip0_3132_11241">
<rect width="240" height="240" fill="white"/>
</clipPath>
</defs>
</svg>
