<svg width="1722" height="1083" viewBox="0 0 1722 1083" fill="none" xmlns="http://www.w3.org/2000/svg">
<g clip-path="url(#clip0_266_12)">
<path d="M1536.93 18.8707L1737.26 82.5785C1798.28 101.981 1839.71 158.642 1839.71 222.665L1839.72 1860.58C1839.72 1868.07 1833.65 1874.13 1826.16 1874.13L1193.22 1874.13L-0.259737 1874.13C-5.81255 1874.13 -10.3137 1869.63 -10.3134 1864.08L-10.3135 889.505C-10.3135 868.242 -5.70106 847.233 3.20577 827.926L91.2549 637.067C119.918 574.934 187.662 540.796 254.655 554.722L486.715 602.964C551.151 616.359 616.639 585.292 647.027 526.913L736.467 355.084C766.784 296.839 832.053 265.765 896.378 278.95L1143.91 329.688C1216.74 344.617 1289.25 302.822 1312.83 232.321L1352.98 112.319C1378.47 36.14 1460.38 -5.47378 1536.93 18.8707Z" fill="#0091BA"/>
</g>
<defs>
<clipPath id="clip0_266_12">
<rect width="1722" height="1083" fill="white"/>
</clipPath>
</defs>
</svg>
