<svg width="546" height="716" viewBox="0 0 546 716" fill="none" xmlns="http://www.w3.org/2000/svg">
<g clip-path="url(#clip0_4517_2450)">
<path d="M903.013 38.8316L1075.06 185.346L1275.06 387.539C1343.4 456.627 1327.09 571.829 1242.27 619.237L186.436 1209.31C112.962 1250.37 20.0793 1221.47 -17.1322 1145.98L-379.585 410.614L-464.508 261.681C-498.524 202.027 -486.706 126.77 -436.042 80.4134L-396.374 44.1186C-345.892 -2.07193 -270.215 -7.32231 -213.837 31.4544L-94.571 113.486C-40.3449 150.783 32.0638 147.492 82.6828 105.43L168.219 34.352C218.721 -7.61356 290.931 -10.9965 345.135 26.0636L472.854 113.386C534.223 155.345 617.258 144.881 666.299 89.0092L697.225 53.7757C750.216 -6.59591 841.856 -13.2507 903.013 38.8316Z" fill="#FAFAFA"/>
<path d="M903.013 38.8316L1075.06 185.346L1275.06 387.539C1343.4 456.627 1327.09 571.829 1242.27 619.237L186.436 1209.31C112.962 1250.37 20.0793 1221.47 -17.1322 1145.98L-379.585 410.614L-464.508 261.681C-498.524 202.027 -486.706 126.77 -436.042 80.4134L-396.374 44.1186C-345.892 -2.07193 -270.215 -7.32231 -213.837 31.4544L-94.571 113.486C-40.3449 150.783 32.0638 147.492 82.6828 105.43L168.219 34.352C218.721 -7.61356 290.931 -10.9965 345.135 26.0636L472.854 113.386C534.223 155.345 617.258 144.881 666.299 89.0092L697.225 53.7757C750.216 -6.59591 841.856 -13.2507 903.013 38.8316Z" fill="url(#paint0_radial_4517_2450)" fill-opacity="0.2"/>
</g>
<defs>
<radialGradient id="paint0_radial_4517_2450" cx="0" cy="0" r="1" gradientUnits="userSpaceOnUse" gradientTransform="translate(269.5 729) rotate(-90.1274) scale(674.502 974.518)">
<stop stop-color="white" stop-opacity="0"/>
<stop offset="0.56" stop-color="#DFA8FF" stop-opacity="0.34"/>
<stop offset="1" stop-color="#7300FF"/>
</radialGradient>
<clipPath id="clip0_4517_2450">
<rect width="546" height="716" fill="white"/>
</clipPath>
</defs>
</svg>
