<svg width="998" height="1199" viewBox="0 0 998 1199" fill="none" xmlns="http://www.w3.org/2000/svg">
<g clip-path="url(#clip0_4522_90)">
<path d="M1620.89 130.596L1901.22 370.685L2225.31 700.154C2360.68 837.767 2327.65 1066.51 2158.88 1160.21L351.344 2163.78C205.169 2244.93 20.8282 2187.02 -52.6695 2036.85L-676.372 762.488L-813.599 520.259C-880.836 401.574 -856.942 252.15 -756.047 160.349L-722.899 130.189C-622.365 38.7166 -472.012 28.7071 -360.24 106.045L-189.769 223.998C-82.2617 298.386 61.5879 292.25 162.37 208.978L277.365 113.963C377.915 30.8831 521.369 24.5637 628.835 98.4801L811.86 224.367C933.53 308.054 1098.53 287.73 1196.25 177.018L1212.03 159.139C1317.63 39.5114 1499.7 26.8007 1620.89 130.596Z" fill="#FAFAFA"/>
<path d="M1620.89 130.596L1901.22 370.685L2225.31 700.154C2360.68 837.767 2327.65 1066.51 2158.88 1160.21L351.344 2163.78C205.169 2244.93 20.8282 2187.02 -52.6695 2036.85L-676.372 762.488L-813.599 520.259C-880.836 401.574 -856.942 252.15 -756.047 160.349L-722.899 130.189C-622.365 38.7166 -472.012 28.7071 -360.24 106.045L-189.769 223.998C-82.2617 298.386 61.5879 292.25 162.37 208.978L277.365 113.963C377.915 30.8831 521.369 24.5637 628.835 98.4801L811.86 224.367C933.53 308.054 1098.53 287.73 1196.25 177.018L1212.03 159.139C1317.63 39.5114 1499.7 26.8007 1620.89 130.596Z" fill="url(#paint0_radial_4522_90)" fill-opacity="0.2"/>
</g>
<defs>
<radialGradient id="paint0_radial_4522_90" cx="0" cy="0" r="1" gradientUnits="userSpaceOnUse" gradientTransform="translate(471.723 1329.63) rotate(-89.9674) scale(1194.69 1726.09)">
<stop stop-color="white" stop-opacity="0"/>
<stop offset="0.56" stop-color="#DFA8FF" stop-opacity="0.34"/>
<stop offset="1" stop-color="#7300FF"/>
</radialGradient>
<clipPath id="clip0_4522_90">
<rect width="998" height="1199" fill="white"/>
</clipPath>
</defs>
</svg>
