<svg width="240" height="240" viewBox="0 0 240 240" fill="none" xmlns="http://www.w3.org/2000/svg">
<g clip-path="url(#clip0_2873_5933)">
<path d="M32.9167 141.737C34.4285 140.126 34.3481 137.595 32.7373 136.083C31.1264 134.572 28.595 134.652 27.0833 136.263L32.9167 141.737ZM30.1893 144.465C31.125 143.583 32.0412 142.67 32.9167 141.737L27.0833 136.263C26.3314 137.064 25.5315 137.861 24.6996 138.646L30.1893 144.465Z" fill="white" fill-opacity="0.4"/>
<path d="M-8.16465 227.734C-9.96844 229.009 -10.3968 231.506 -9.12136 233.309C-7.84595 235.113 -5.34978 235.541 -3.54599 234.266L-8.16465 227.734ZM-3.54599 234.266C1.84487 230.454 9.33256 224.14 13.8998 217.612C16.1506 214.396 18.0581 210.617 18.1521 206.75C18.2571 202.429 16.0929 198.746 11.8364 196.291L7.8391 203.22C9.85973 204.386 10.1803 205.494 10.1545 206.555C10.1177 208.069 9.27894 210.262 7.34493 213.026C3.54257 218.461 -3.09348 224.148 -8.16465 227.734L-3.54599 234.266ZM11.8364 196.291C6.93677 193.465 1.16234 192.896 -4.26633 193.467C-9.72524 194.041 -15.1798 195.799 -19.7802 198.039C-24.3094 200.245 -28.3935 203.106 -30.8257 206.148C-32.0219 207.644 -33.1458 209.592 -33.2762 211.824C-33.4259 214.385 -32.2312 216.583 -30.1912 218.045L-25.5311 211.543C-25.5792 211.508 -25.263 211.831 -25.2899 212.291C-25.2976 212.423 -25.2975 212.045 -24.577 211.143C-23.1757 209.391 -20.2555 207.169 -16.2776 205.232C-12.3707 203.329 -7.81529 201.884 -3.42933 201.423C0.986879 200.958 4.89216 201.521 7.8391 203.22L11.8364 196.291ZM-30.1912 218.045C-26.924 220.386 -22.9832 220.625 -19.5217 220.142C-16.0198 219.654 -12.4345 218.356 -9.27097 216.91C-2.95208 214.021 2.51904 210.148 3.76005 209.146L-1.26612 202.922C-2.05003 203.555 -6.95657 207.055 -12.5973 209.634C-15.4136 210.921 -18.2036 211.881 -20.6261 212.219C-23.0891 212.562 -24.6218 212.194 -25.5311 211.543L-30.1912 218.045Z" fill="white" fill-opacity="0.4"/>
<path d="M8.40223 179.582C6.37732 181.241 -12.3531 194.54 -20.7058 188.468C-29.0586 182.396 1.29995 164.031 16.993 173.214C24.7195 177.734 20.9543 185.853 14.477 193.178" stroke="white" stroke-opacity="0.4" stroke-width="8"/>
<path d="M14.0243 153.313C11.9994 154.934 -6.73102 167.932 -15.0838 161.997C-23.4365 156.063 6.92202 138.116 22.6151 147.09C30.3416 151.508 26.5764 159.442 20.099 166.6" stroke="white" stroke-opacity="0.4" stroke-width="8"/>
<path d="M231.835 227.734C230.032 229.009 229.603 231.506 230.879 233.309C232.154 235.113 234.65 235.541 236.454 234.266L231.835 227.734ZM236.454 234.266C241.845 230.454 249.333 224.14 253.9 217.612C256.151 214.396 258.058 210.617 258.152 206.75C258.257 202.429 256.093 198.746 251.836 196.291L247.839 203.22C249.86 204.386 250.18 205.494 250.154 206.555C250.118 208.069 249.279 210.262 247.345 213.026C243.543 218.461 236.907 224.148 231.835 227.734L236.454 234.266ZM251.836 196.291C246.937 193.465 241.162 192.896 235.734 193.467C230.275 194.041 224.82 195.799 220.22 198.039C215.691 200.245 211.607 203.106 209.174 206.148C207.978 207.644 206.854 209.592 206.724 211.824C206.574 214.385 207.769 216.583 209.809 218.045L214.469 211.543C214.421 211.508 214.737 211.831 214.71 212.291C214.702 212.423 214.703 212.045 215.423 211.143C216.824 209.391 219.744 207.169 223.722 205.232C227.629 203.329 232.185 201.884 236.571 201.423C240.987 200.958 244.892 201.521 247.839 203.22L251.836 196.291ZM209.809 218.045C213.076 220.386 217.017 220.625 220.478 220.142C223.98 219.654 227.566 218.356 230.729 216.91C237.048 214.021 242.519 210.148 243.76 209.146L238.734 202.922C237.95 203.555 233.043 207.055 227.403 209.634C224.586 210.921 221.796 211.881 219.374 212.219C216.911 212.562 215.378 212.194 214.469 211.543L209.809 218.045Z" fill="white" fill-opacity="0.4"/>
<path d="M248.402 179.582C246.377 181.241 227.647 194.54 219.294 188.468C210.941 182.396 241.3 164.031 256.993 173.214C264.719 177.734 260.954 185.853 254.477 193.178" stroke="white" stroke-opacity="0.4" stroke-width="8"/>
<path d="M254.024 153.313C251.999 154.934 233.269 167.932 224.916 161.997C216.563 156.063 246.922 138.116 262.615 147.09C270.342 151.508 266.576 159.442 260.099 166.6" stroke="white" stroke-opacity="0.4" stroke-width="8"/>
<path d="M152.917 7.73733C154.428 6.12646 154.348 3.59508 152.737 2.08333C151.126 0.571578 148.595 0.651933 147.083 2.2628L152.917 7.73733ZM150.189 10.4652C151.125 9.58255 152.041 8.67029 152.917 7.73733L147.083 2.2628C146.331 3.06393 145.531 3.86126 144.7 4.64601L150.189 10.4652Z" fill="white" fill-opacity="0.4"/>
<path d="M111.835 93.734C110.032 95.0094 109.603 97.5055 110.879 99.3093C112.154 101.113 114.65 101.541 116.454 100.266L111.835 93.734ZM116.454 100.266C121.845 96.4543 129.333 90.1403 133.9 83.6125C136.151 80.3955 138.058 76.6172 138.152 72.7495C138.257 68.429 136.093 64.746 131.836 62.2907L127.839 69.2205C129.86 70.386 130.18 71.4944 130.154 72.5552C130.118 74.0689 129.279 76.2621 127.345 79.0263C123.543 84.4609 116.907 90.1483 111.835 93.734L116.454 100.266ZM131.836 62.2907C126.937 59.4645 121.162 58.8955 115.734 59.4666C110.275 60.0409 104.82 61.7989 100.22 64.0391C95.6906 66.2448 91.6065 69.1056 89.1743 72.1481C87.9781 73.6444 86.8542 75.5919 86.7238 77.8243C86.5741 80.385 87.7688 82.583 89.8088 84.0451L94.4689 77.5425C94.4208 77.508 94.737 77.8308 94.7101 78.2911C94.7024 78.423 94.7025 78.0447 95.423 77.1434C96.8243 75.3906 99.7445 73.1688 103.722 71.2316C107.629 69.3291 112.185 67.8841 116.571 67.4227C120.987 66.9581 124.892 67.5206 127.839 69.2205L131.836 62.2907ZM89.8088 84.0451C93.076 86.3865 97.0168 86.6246 100.478 86.142C103.98 85.6539 107.566 84.3559 110.729 82.9096C117.048 80.0206 122.519 76.1478 123.76 75.1456L118.734 68.9217C117.95 69.5547 113.043 73.055 107.403 75.6339C104.586 76.9215 101.796 77.881 99.3739 78.2187C96.9109 78.562 95.3782 78.1941 94.4689 77.5425L89.8088 84.0451Z" fill="white" fill-opacity="0.4"/>
<path d="M128.402 45.5819C126.377 47.2407 107.647 60.5402 99.2942 54.468C90.9414 48.3959 121.3 30.0313 136.993 39.2136C144.719 43.7345 140.954 51.853 134.477 59.1777" stroke="white" stroke-opacity="0.4" stroke-width="8"/>
<path d="M134.024 19.3133C131.999 20.9343 113.269 33.9316 104.916 27.9974C96.5635 22.0633 126.922 4.11605 142.615 13.0897C150.342 17.5078 146.576 25.4418 140.099 32.6001" stroke="white" stroke-opacity="0.4" stroke-width="8"/>
<path fill-rule="evenodd" clip-rule="evenodd" d="M109.081 195.139C106.26 193.4 105.383 189.703 107.122 186.883C107.376 186.47 107.98 185.266 108.43 183.607C108.874 181.97 109.086 180.191 108.864 178.521C108.426 175.236 110.734 172.219 114.019 171.781C117.303 171.344 120.321 173.652 120.759 176.936C121.709 184.072 118.956 190.552 117.337 193.179C115.598 196 111.902 196.877 109.081 195.139Z" fill="white" fill-opacity="0.4"/>
<path fill-rule="evenodd" clip-rule="evenodd" d="M117.959 172.621C120.78 174.36 121.658 178.056 119.919 180.877C119.664 181.289 119.061 182.493 118.611 184.153C118.167 185.789 117.955 187.568 118.177 189.238C118.615 192.523 116.307 195.541 113.022 195.978C109.737 196.416 106.72 194.108 106.282 190.823C105.331 183.688 108.084 177.207 109.703 174.58C111.442 171.759 115.139 170.882 117.959 172.621Z" fill="white" fill-opacity="0.4"/>
<path fill-rule="evenodd" clip-rule="evenodd" d="M113.126 175.895C110.305 174.156 109.428 170.459 111.166 167.639C111.421 167.226 112.024 166.022 112.475 164.363C112.919 162.726 113.131 160.947 112.908 159.277C112.47 155.992 114.778 152.975 118.063 152.537C121.348 152.099 124.365 154.407 124.803 157.692C125.754 164.828 123.001 171.308 121.382 173.935C119.643 176.756 115.947 177.633 113.126 175.895Z" fill="white" fill-opacity="0.4"/>
<path fill-rule="evenodd" clip-rule="evenodd" d="M122.004 153.377C124.825 155.116 125.702 158.812 123.963 161.633C123.709 162.045 123.105 163.249 122.655 164.909C122.211 166.545 121.999 168.324 122.221 169.994C122.659 173.279 120.351 176.297 117.066 176.734C113.782 177.172 110.764 174.864 110.326 171.579C109.376 164.444 112.129 157.963 113.748 155.336C115.487 152.515 119.183 151.638 122.004 153.377Z" fill="white" fill-opacity="0.4"/>
<path fill-rule="evenodd" clip-rule="evenodd" d="M130.395 190.294C127.479 191.867 123.839 190.779 122.266 187.863C122.036 187.436 121.295 186.312 120.083 185.092C118.887 183.889 117.453 182.816 115.895 182.174C112.832 180.91 111.372 177.403 112.636 174.339C113.899 171.276 117.407 169.817 120.47 171.08C127.125 173.824 131.361 179.449 132.826 182.164C134.4 185.081 133.311 188.72 130.395 190.294Z" fill="white" fill-opacity="0.4"/>
<path fill-rule="evenodd" clip-rule="evenodd" d="M115.333 171.346C118.25 169.773 121.889 170.861 123.463 173.777C123.693 174.204 124.434 175.328 125.646 176.548C126.841 177.751 128.275 178.824 129.833 179.466C132.897 180.73 134.356 184.237 133.093 187.301C131.829 190.364 128.322 191.823 125.258 190.56C118.604 187.816 114.367 182.191 112.902 179.476C111.329 176.559 112.417 172.92 115.333 171.346Z" fill="white" fill-opacity="0.4"/>
<path fill-rule="evenodd" clip-rule="evenodd" d="M115.752 177.169C112.835 178.743 109.196 177.654 107.622 174.738C107.392 174.311 106.651 173.187 105.439 171.967C104.244 170.764 102.809 169.691 101.252 169.049C98.1881 167.785 96.7288 164.278 97.9922 161.214C99.2555 158.151 102.763 156.692 105.827 157.955C112.481 160.699 116.717 166.324 118.183 169.04C119.756 171.956 118.668 175.596 115.752 177.169Z" fill="white" fill-opacity="0.4"/>
<path fill-rule="evenodd" clip-rule="evenodd" d="M100.69 158.222C103.606 156.648 107.246 157.737 108.819 160.653C109.049 161.079 109.79 162.204 111.002 163.424C112.198 164.627 113.632 165.7 115.19 166.342C118.253 167.605 119.712 171.113 118.449 174.176C117.186 177.24 113.678 178.699 110.615 177.436C103.96 174.691 99.7238 169.067 98.2585 166.351C96.685 163.435 97.7735 159.795 100.69 158.222Z" fill="white" fill-opacity="0.4"/>
<path fill-rule="evenodd" clip-rule="evenodd" d="M94.2287 179.102C94.3241 175.79 97.0866 173.182 100.399 173.278C100.883 173.292 102.228 173.213 103.89 172.773C105.529 172.339 107.176 171.633 108.511 170.605C111.137 168.584 114.904 169.074 116.925 171.7C118.947 174.325 118.457 178.093 115.831 180.114C110.127 184.505 103.138 185.362 100.053 185.273C96.7411 185.177 94.1333 182.415 94.2287 179.102Z" fill="white" fill-opacity="0.4"/>
<path fill-rule="evenodd" clip-rule="evenodd" d="M118.168 175.532C118.073 178.845 115.31 181.453 111.998 181.357C111.514 181.343 110.17 181.422 108.507 181.862C106.868 182.296 105.221 183.002 103.886 184.03C101.26 186.051 97.493 185.561 95.4716 182.935C93.4503 180.309 93.9403 176.542 96.5661 174.521C102.27 170.13 109.259 169.273 112.344 169.362C115.656 169.457 118.264 172.22 118.168 175.532Z" fill="white" fill-opacity="0.4"/>
<path fill-rule="evenodd" clip-rule="evenodd" d="M112.916 172.983C113.012 169.671 115.774 167.063 119.086 167.158C119.571 167.172 120.915 167.093 122.577 166.653C124.217 166.219 125.863 165.514 127.199 164.486C129.824 162.464 133.592 162.954 135.613 165.58C137.634 168.206 137.144 171.973 134.519 173.995C128.815 178.386 121.825 179.242 118.741 179.153C115.429 179.058 112.821 176.295 112.916 172.983Z" fill="white" fill-opacity="0.4"/>
<path fill-rule="evenodd" clip-rule="evenodd" d="M136.856 169.413C136.761 172.725 133.998 175.333 130.686 175.238C130.201 175.224 128.857 175.303 127.195 175.743C125.555 176.177 123.909 176.882 122.574 177.91C119.948 179.931 116.181 179.441 114.159 176.816C112.138 174.19 112.628 170.423 115.254 168.401C120.958 164.01 127.947 163.154 131.031 163.243C134.344 163.338 136.951 166.101 136.856 169.413Z" fill="white" fill-opacity="0.4"/>
<path d="M-3.76925 62.0312C-2.61243 60.1544 -0.476583 55.0666 -1.18775 49.7289" stroke="white" stroke-opacity="0.4" stroke-width="12" stroke-linecap="round"/>
<path d="M-1.18778 49.7286C-2.3446 51.6053 -4.48045 56.6932 -3.76928 62.0309" stroke="white" stroke-opacity="0.4" stroke-width="12" stroke-linecap="round"/>
<path d="M0.275184 42.787C1.432 40.9103 3.56785 35.8224 2.85669 30.4847" stroke="white" stroke-opacity="0.4" stroke-width="12" stroke-linecap="round"/>
<path d="M2.85665 30.485C1.69983 32.3617 -0.436014 37.4496 0.275151 42.7872" stroke="white" stroke-opacity="0.4" stroke-width="12" stroke-linecap="round"/>
<path d="M11.5473 57.014C10.5004 55.0738 7.16211 50.6801 2.18395 48.6272" stroke="white" stroke-opacity="0.4" stroke-width="12" stroke-linecap="round"/>
<path d="M2.18367 48.6267C3.23055 50.5669 6.56885 54.9605 11.547 57.0135" stroke="white" stroke-opacity="0.4" stroke-width="12" stroke-linecap="round"/>
<path d="M-3.09627 43.889C-4.14315 41.9488 -7.48145 37.5551 -12.4596 35.5022" stroke="white" stroke-opacity="0.4" stroke-width="12" stroke-linecap="round"/>
<path d="M-12.4599 35.5022C-11.413 37.4423 -8.07471 41.836 -3.09655 43.8889" stroke="white" stroke-opacity="0.4" stroke-width="12" stroke-linecap="round"/>
<path d="M-15.7726 51.2755C-13.5689 51.339 -8.09475 50.6447 -3.82775 47.36" stroke="white" stroke-opacity="0.4" stroke-width="12" stroke-linecap="round"/>
<path d="M-3.82799 47.3598C-6.03169 47.2963 -11.5058 47.9905 -15.7728 51.2753" stroke="white" stroke-opacity="0.4" stroke-width="12" stroke-linecap="round"/>
<path d="M2.91491 45.1559C5.11861 45.2193 10.5928 44.5251 14.8597 41.2404" stroke="white" stroke-opacity="0.4" stroke-width="12" stroke-linecap="round"/>
<path d="M14.8595 41.2401C12.6558 41.1767 7.18166 41.8709 2.91467 45.1556" stroke="white" stroke-opacity="0.4" stroke-width="12" stroke-linecap="round"/>
<path d="M238.231 62.0312C239.388 60.1544 241.523 55.0666 240.812 49.7289" stroke="white" stroke-opacity="0.4" stroke-width="12" stroke-linecap="round"/>
<path d="M240.812 49.7286C239.655 51.6053 237.52 56.6932 238.231 62.0309" stroke="white" stroke-opacity="0.4" stroke-width="12" stroke-linecap="round"/>
<path d="M242.275 42.787C243.432 40.9103 245.568 35.8224 244.857 30.4847" stroke="white" stroke-opacity="0.4" stroke-width="12" stroke-linecap="round"/>
<path d="M244.857 30.485C243.7 32.3617 241.564 37.4496 242.275 42.7872" stroke="white" stroke-opacity="0.4" stroke-width="12" stroke-linecap="round"/>
<path d="M253.547 57.014C252.5 55.0738 249.162 50.6801 244.184 48.6272" stroke="white" stroke-opacity="0.4" stroke-width="12" stroke-linecap="round"/>
<path d="M244.184 48.6267C245.231 50.5669 248.569 54.9605 253.547 57.0135" stroke="white" stroke-opacity="0.4" stroke-width="12" stroke-linecap="round"/>
<path d="M238.904 43.889C237.857 41.9488 234.519 37.5551 229.54 35.5022" stroke="white" stroke-opacity="0.4" stroke-width="12" stroke-linecap="round"/>
<path d="M229.54 35.5022C230.587 37.4423 233.925 41.836 238.903 43.8889" stroke="white" stroke-opacity="0.4" stroke-width="12" stroke-linecap="round"/>
<path d="M226.227 51.2755C228.431 51.339 233.905 50.6447 238.172 47.36" stroke="white" stroke-opacity="0.4" stroke-width="12" stroke-linecap="round"/>
<path d="M238.172 47.3598C235.968 47.2963 230.494 47.9905 226.227 51.2753" stroke="white" stroke-opacity="0.4" stroke-width="12" stroke-linecap="round"/>
<path d="M244.915 45.1559C247.119 45.2193 252.593 44.5251 256.86 41.2404" stroke="white" stroke-opacity="0.4" stroke-width="12" stroke-linecap="round"/>
<path d="M256.86 41.2401C254.656 41.1767 249.182 41.8709 244.915 45.1556" stroke="white" stroke-opacity="0.4" stroke-width="12" stroke-linecap="round"/>
</g>
<defs>
<clipPath id="clip0_2873_5933">
<rect width="240" height="240" fill="white" transform="matrix(-1 0 0 -1 240 240)"/>
</clipPath>
</defs>
</svg>
