<svg width="369" height="381" viewBox="0 0 369 381" fill="none" xmlns="http://www.w3.org/2000/svg">
<path d="M138.672 34.1151C152.679 -10.8503 216.321 -10.8504 230.328 34.1151L247.007 87.6571C251.137 100.916 260.807 111.736 273.52 117.324L340.029 146.558C378.276 163.369 378.276 217.631 340.029 234.442L273.52 263.676C260.807 269.264 251.137 280.084 247.007 293.343L230.328 346.885C216.321 391.85 152.679 391.85 138.672 346.885L121.993 293.343C117.863 280.084 108.193 269.264 95.4801 263.676L28.9712 234.442C-9.27557 217.631 -9.27553 163.369 28.9713 146.558L95.4801 117.324C108.193 111.736 117.863 100.916 121.993 87.6571L138.672 34.1151Z" fill="#8AFCBE"/>
</svg>
