<svg width="1600" height="1600" viewBox="0 0 1600 1600" fill="none" xmlns="http://www.w3.org/2000/svg">
<g clip-path="url(#clip0_3214_7690)">
<rect width="1600" height="1600" fill="white"/>
<mask id="mask0_3214_7690" style="mask-type:alpha" maskUnits="userSpaceOnUse" x="0" y="0" width="4800" height="1600">
<path d="M1532.13 626.053L1282.13 551.053C1277.23 549.59 1271.99 549.668 1267.13 551.277L1049.64 623.777L807.134 551.053C802.451 549.647 797.462 549.647 792.779 551.053L550.272 623.777L332.779 551.277C327.92 549.668 322.685 549.59 317.779 551.053L67.779 626.053C62.6279 627.595 58.1123 630.756 54.8987 635.074C51.6905 639.387 49.9561 644.621 49.9561 650.001V1250C49.9561 1256.63 52.5915 1262.99 57.279 1267.68C61.9665 1272.37 68.3259 1275 74.9563 1275H202.456C200.774 1283.23 199.936 1291.6 199.956 1300C199.956 1344.66 223.779 1385.92 262.456 1408.26C301.134 1430.58 348.779 1430.58 387.456 1408.26C426.134 1385.92 449.956 1344.66 449.956 1300C449.977 1291.61 449.139 1283.23 447.456 1275H677.456C675.774 1283.23 674.936 1291.6 674.956 1300C674.956 1344.66 698.779 1385.92 737.456 1408.26C776.134 1430.58 823.779 1430.58 862.456 1408.26C901.134 1385.92 924.956 1344.66 924.956 1300C924.977 1291.61 924.139 1283.23 922.456 1275H1152.46C1150.77 1283.23 1149.94 1291.6 1149.96 1300C1149.96 1344.66 1173.78 1385.92 1212.46 1408.26C1251.13 1430.58 1298.78 1430.58 1337.46 1408.26C1376.13 1385.92 1399.96 1344.66 1399.96 1300C1399.98 1291.61 1399.14 1283.23 1397.46 1275H1524.96C1531.59 1275 1537.95 1272.37 1542.63 1267.68C1547.32 1262.99 1549.96 1256.63 1549.96 1250V650.001C1549.96 644.62 1548.22 639.386 1545.01 635.074C1541.8 630.756 1537.28 627.595 1532.13 626.053ZM411.454 1225C405.573 1224.99 399.881 1227.06 395.371 1230.84C390.866 1234.61 387.835 1239.86 386.814 1245.65C385.788 1251.44 386.84 1257.41 389.777 1262.5C396.439 1273.87 399.949 1286.82 399.954 1300C399.954 1326.8 385.657 1351.55 362.454 1364.95C339.252 1378.35 310.657 1378.35 287.454 1364.95C264.252 1351.55 249.954 1326.8 249.954 1300C249.96 1286.82 253.47 1273.87 260.131 1262.5C263.069 1257.41 264.121 1251.44 263.095 1245.65C262.074 1239.86 259.043 1234.61 254.538 1230.84C250.027 1227.06 244.335 1224.99 238.455 1225H99.9483V668.6L324.548 601.225L524.948 668.028V802.508C516.719 800.826 508.344 799.987 499.948 800.008C455.292 800.008 414.027 823.831 391.694 862.508C369.366 901.185 369.366 948.831 391.694 987.508C414.027 1026.19 455.292 1050.01 499.948 1050.01C508.344 1050.03 516.719 1049.19 524.948 1047.51V1225L411.454 1225ZM1037.45 989.853C1029.72 994.322 1024.95 1002.57 1024.95 1011.5V1225H886.447C880.567 1224.99 874.874 1227.06 870.364 1230.84C865.859 1234.61 862.828 1239.86 861.807 1245.65C860.781 1251.44 861.833 1257.4 864.771 1262.5C871.432 1273.87 874.942 1286.81 874.948 1300C874.948 1326.79 860.65 1351.55 837.448 1364.95C814.245 1378.35 785.65 1378.35 762.448 1364.95C739.245 1351.55 724.948 1326.79 724.948 1300C724.953 1286.81 728.463 1273.87 735.125 1262.5C738.062 1257.4 739.114 1251.44 738.088 1245.65C737.067 1239.86 734.036 1234.61 729.531 1230.84C725.021 1227.06 719.328 1224.99 713.448 1225H574.942V1011.5C574.947 1005.62 572.879 999.931 569.103 995.421C565.327 990.916 560.082 987.885 554.291 986.864C548.499 985.838 542.536 986.89 537.442 989.828C526.067 996.489 513.124 999.999 499.942 1000C473.144 1000 448.39 985.707 434.988 962.505C421.592 939.302 421.592 910.707 434.988 887.505C448.39 864.302 473.144 850.005 499.942 850.005C513.124 850.01 526.067 853.52 537.442 860.182C542.536 863.119 548.499 864.171 554.291 863.145C560.083 862.124 565.328 859.093 569.103 854.588C572.879 850.078 574.947 844.385 574.942 838.505V668.505L799.942 601.005L1024.94 668.505V838.505C1024.94 844.386 1027 850.078 1030.78 854.588C1034.56 859.093 1039.8 862.124 1045.59 863.145C1051.38 864.171 1057.35 863.119 1062.44 860.182C1073.82 853.52 1086.76 850.01 1099.94 850.005C1126.74 850.005 1151.49 864.302 1164.89 887.505C1178.29 910.707 1178.29 939.302 1164.89 962.505C1151.49 985.707 1126.74 1000 1099.94 1000C1086.76 999.999 1073.82 996.489 1062.44 989.828C1058.64 987.64 1054.33 986.489 1049.94 986.494C1045.55 986.499 1041.24 987.656 1037.44 989.854L1037.45 989.853ZM1499.96 1225H1361.45C1355.57 1224.99 1349.88 1227.06 1345.37 1230.84C1340.87 1234.61 1337.83 1239.86 1336.81 1245.65C1335.79 1251.44 1336.84 1257.41 1339.78 1262.5C1346.44 1273.87 1349.95 1286.82 1349.95 1300C1349.95 1326.8 1335.66 1351.55 1312.45 1364.95C1289.25 1378.35 1260.66 1378.35 1237.45 1364.95C1214.25 1351.55 1199.95 1326.8 1199.95 1300C1199.96 1286.82 1203.47 1273.87 1210.13 1262.5C1213.07 1257.41 1214.12 1251.44 1213.1 1245.65C1212.07 1239.86 1209.04 1234.61 1204.54 1230.84C1200.03 1227.06 1194.33 1224.99 1188.46 1225H1074.96V1047.51C1083.18 1049.19 1091.56 1050.03 1099.96 1050.01C1144.61 1050.01 1185.88 1026.18 1208.21 987.507C1230.54 948.829 1230.54 901.184 1208.21 862.507C1185.88 823.829 1144.61 800.007 1099.96 800.007C1091.56 799.986 1083.18 800.824 1074.96 802.507V668.027L1275.36 601.224L1499.95 668.599L1499.96 1225Z" fill="#2F2F2F"/>
<path d="M1275 525C1321.41 525 1365.93 506.563 1398.75 473.745C1431.56 440.928 1450 396.412 1450 350C1450 303.588 1431.56 259.073 1398.75 226.255C1365.93 193.437 1321.41 175 1275 175C1228.59 175 1184.07 193.437 1151.25 226.255C1118.44 259.072 1100 303.588 1100 350C1100.05 396.396 1118.51 440.88 1151.31 473.688C1184.12 506.496 1228.6 524.948 1275 525ZM1275 225C1308.15 225 1339.95 238.172 1363.39 261.609C1386.83 285.052 1400 316.849 1400 350C1400 383.151 1386.83 414.948 1363.39 438.391C1339.95 461.828 1308.15 475 1275 475C1241.85 475 1210.05 461.828 1186.61 438.391C1163.17 414.948 1150 383.151 1150 350C1150.04 316.86 1163.22 285.088 1186.66 261.656C1210.09 238.224 1241.86 225.041 1275 225Z" fill="#2F2F2F"/>
<path d="M800 525C846.412 525 890.927 506.563 923.745 473.745C956.563 440.928 975 396.412 975 350C975 303.588 956.563 259.073 923.745 226.255C890.928 193.437 846.412 175 800 175C753.588 175 709.073 193.437 676.255 226.255C643.437 259.072 625 303.588 625 350C625.052 396.396 643.505 440.88 676.312 473.688C709.119 506.496 753.604 524.948 800 525ZM800 225C833.151 225 864.948 238.172 888.391 261.609C911.828 285.052 925 316.849 925 350C925 383.151 911.828 414.948 888.391 438.391C864.948 461.828 833.151 475 800 475C766.849 475 735.052 461.828 711.609 438.391C688.172 414.948 675 383.151 675 350C675.042 316.86 688.224 285.088 711.656 261.656C735.088 238.224 766.859 225.041 800 225Z" fill="#2F2F2F"/>
<path d="M325 525C371.412 525 415.927 506.563 448.745 473.745C481.563 440.928 500 396.412 500 350C500 303.588 481.563 259.073 448.745 226.255C415.928 193.437 371.412 175 325 175C278.588 175 234.073 193.437 201.255 226.255C168.437 259.072 150 303.588 150 350C150.052 396.396 168.505 440.88 201.312 473.688C234.119 506.496 278.604 524.948 325 525ZM325 225C358.151 225 389.948 238.172 413.391 261.609C436.828 285.052 450 316.849 450 350C450 383.151 436.828 414.948 413.391 438.391C389.948 461.828 358.151 475 325 475C291.849 475 260.052 461.828 236.609 438.391C213.172 414.948 200 383.151 200 350C200.042 316.86 213.224 285.088 236.656 261.656C260.088 238.224 291.859 225.041 325 225Z" fill="#2F2F2F"/>
</mask>
<g mask="url(#mask0_3214_7690)">
<rect x="-361" y="-198" width="7295" height="1848" fill="#D9D9D9"/>
<rect x="-361" y="-198" width="7295" height="1848" fill="url(#paint0_radial_3214_7690)"/>
</g>
</g>
<defs>
<radialGradient id="paint0_radial_3214_7690" cx="0" cy="0" r="1" gradientUnits="userSpaceOnUse" gradientTransform="translate(798.933 1441.68) rotate(-13.0576) scale(5681.03 2374.9)">
<stop stop-color="#A4128E"/>
<stop offset="1" stop-color="#00CAB6"/>
</radialGradient>
<clipPath id="clip0_3214_7690">
<rect width="1600" height="1600" fill="white"/>
</clipPath>
</defs>
</svg>
