<svg width="1600" height="1600" viewBox="0 0 1600 1600" fill="none" xmlns="http://www.w3.org/2000/svg">
<g clip-path="url(#clip0_3214_7868)">
<rect width="1600" height="1600" fill="white"/>
<mask id="mask0_3214_7868" style="mask-type:alpha" maskUnits="userSpaceOnUse" x="-4478" y="0" width="6078" height="1600">
<path d="M300 1225C280.109 1225 261.031 1232.9 246.969 1246.97C232.901 1261.03 225 1280.11 225 1300C225 1319.89 232.901 1338.97 246.969 1353.03C261.032 1367.1 280.109 1375 300 1375C319.891 1375 338.969 1367.1 353.031 1353.03C367.099 1338.97 375 1319.89 375 1300C375 1280.11 367.099 1261.03 353.031 1246.97C338.968 1232.9 319.891 1225 300 1225ZM300 1325C293.37 1325 287.01 1322.36 282.323 1317.68C277.635 1312.99 275 1306.63 275 1300C275 1293.37 277.635 1287.01 282.323 1282.32C287.01 1277.63 293.37 1275 300 1275C306.63 1275 312.99 1277.63 317.677 1282.32C322.365 1287.01 325 1293.37 325 1300C325 1306.63 322.365 1312.99 317.677 1317.68C312.99 1322.36 306.63 1325 300 1325Z" fill="#2F2F2F"/>
<path d="M807.32 382.32L842.669 417.669L942.669 317.669L942.675 317.675C947.357 312.982 949.992 306.628 949.992 299.997C949.992 293.367 947.357 287.013 942.675 282.32L842.675 182.32L807.32 217.675L864.648 274.997H549.995V324.997H864.648L807.32 382.32Z" fill="#2F2F2F"/>
<path d="M1067.68 1282.32L967.68 1182.32L932.331 1217.67L989.653 1275H575V1325H989.653L932.331 1382.32L967.68 1417.67L1067.68 1317.67V1317.67C1072.36 1312.98 1075 1306.63 1075 1300C1075 1293.37 1072.36 1287.01 1067.68 1282.32Z" fill="#2F2F2F"/>
<path d="M700 1025H610.349L1117.68 517.68L1082.33 482.331L575 989.651V900H525V1050C525 1056.63 527.635 1062.99 532.323 1067.68C537.01 1072.36 543.37 1075 550 1075H700L700 1025Z" fill="#2F2F2F"/>
<path d="M1533.6 926.507L1258.6 826.507C1250.93 823.715 1242.39 824.84 1235.7 829.522C1229.02 834.205 1225.05 841.85 1225.05 850.006V1300.01H1200.05C1194.47 1300.01 1189.05 1301.88 1184.66 1305.31C1180.27 1308.74 1177.15 1313.55 1175.8 1318.95L1155.52 1400.01H1125.05C1119.48 1400.01 1114.06 1401.87 1109.67 1405.3C1105.27 1408.72 1102.15 1413.53 1100.8 1418.93L1075.8 1518.93C1073.93 1526.4 1075.6 1534.31 1080.34 1540.39C1085.08 1546.46 1092.35 1550.01 1100.05 1550.01H1400.05C1407.75 1550.01 1415.02 1546.46 1419.76 1540.39C1424.5 1534.31 1426.17 1526.4 1424.3 1518.93L1399.3 1418.93C1397.94 1413.53 1394.82 1408.73 1390.43 1405.3C1386.03 1401.87 1380.62 1400.01 1375.05 1400.01H1344.55L1324.3 1318.95C1322.95 1313.55 1319.83 1308.74 1315.43 1305.31C1311.04 1301.88 1305.63 1300.01 1300.05 1300.01H1275.05V1091.1L1535.39 972.75C1541.46 969.995 1546.17 964.932 1548.48 958.693C1550.8 952.448 1550.53 945.542 1547.74 939.5C1544.94 933.453 1539.85 928.776 1533.6 926.5L1533.6 926.507ZM1355.49 1450L1367.99 1500H1132.07L1144.57 1450H1355.49ZM1280.49 1350L1292.99 1400H1207.05L1219.55 1350H1280.49ZM1275.05 1036.17V885.693L1458.95 952.496L1275.05 1036.17Z" fill="#2F2F2F"/>
<path d="M125 482.173V549.996C125 556.626 127.635 562.986 132.323 567.673C137.01 572.361 143.37 574.996 150 574.996V649.996C150 655.574 151.87 660.991 155.302 665.382C158.735 669.778 163.542 672.897 168.948 674.246L268.948 699.246C272.932 700.241 277.094 700.241 281.073 699.246L381.073 674.246C386.479 672.892 391.281 669.772 394.709 665.376C398.136 660.981 400 655.569 400 649.997V574.997C406.631 574.997 412.99 572.361 417.678 567.674C422.365 562.986 425.001 556.627 425.001 549.996V482.22C424.699 459.616 432.391 437.632 446.725 420.147C483.85 376.287 502.787 319.887 499.657 262.507C496.521 205.132 471.553 151.127 429.875 111.574C388.193 72.0162 332.958 49.9069 275.489 49.7762C218.025 49.646 162.691 71.5109 120.835 110.875C78.9754 150.244 53.7621 204.135 50.3714 261.488C46.9807 318.852 65.6634 375.338 102.59 419.368C117.194 437.024 125.121 459.254 124.991 482.171L125 482.173ZM350 630.4L275 649.149L200 630.4V574.999H350V630.4ZM250 275C250 268.37 252.635 262.01 257.323 257.323C262.01 252.635 268.37 250 275 250C281.631 250 287.99 252.635 292.678 257.323C297.365 262.01 300 268.37 300 275C300 281.63 297.365 287.99 292.678 292.677C287.99 297.365 281.631 300 275 300C268.37 300 262.011 297.365 257.323 292.677C252.635 287.99 250 281.63 250 275ZM101.347 252.849C106.378 214.095 124.201 178.131 151.987 150.652C179.779 123.173 215.94 105.751 254.747 101.152C304.492 95.1417 354.397 110.965 391.6 144.527C425.6 174.871 446.407 217.297 449.579 262.756C452.756 308.22 438.053 353.12 408.6 387.901C386.605 414.38 374.704 447.803 375.001 482.224V525H300.001V345.32C322.423 337.393 339.756 319.304 346.715 296.565C353.678 273.825 349.439 249.128 335.298 230.008C321.158 210.893 298.782 199.612 275.001 199.612C251.219 199.612 228.845 210.893 214.703 230.008C200.563 249.128 196.323 273.825 203.287 296.565C210.245 319.305 227.579 337.393 250 345.32V525H175V482.251C175.13 447.557 163.047 413.928 140.875 387.251C109.427 349.953 95.0933 301.157 101.375 252.771L101.347 252.849Z" fill="#2F2F2F"/>
<path d="M532.32 1252.35C538.044 1249.02 542.216 1243.56 543.914 1237.16C545.617 1230.76 544.711 1223.95 541.398 1218.22L491.398 1131.75C488.096 1125.99 482.648 1121.78 476.242 1120.05C469.836 1118.31 463.003 1119.19 457.248 1122.5L399.373 1155.95C391.612 1150.71 383.466 1146.07 374.998 1142.07V1075C374.998 1068.37 372.363 1062.01 367.675 1057.32C362.988 1052.63 356.628 1050 349.998 1050H249.998C243.368 1050 237.008 1052.63 232.321 1057.32C227.633 1062.01 224.998 1068.37 224.998 1075V1142.07C216.529 1146.1 208.378 1150.77 200.623 1156.05L142.748 1122.5C137.009 1119.19 130.181 1118.28 123.779 1120C117.373 1121.72 111.914 1125.9 108.596 1131.65L58.5963 1218.12C55.2838 1223.85 54.3775 1230.66 56.0807 1237.06C57.7786 1243.46 61.9504 1248.92 67.6744 1252.25L125.576 1285.93H125.571C124.836 1295.23 124.836 1304.57 125.571 1313.87L67.6746 1347.65C61.9506 1350.98 57.7787 1356.44 56.0808 1362.84C54.3778 1369.23 55.2839 1376.05 58.5964 1381.77L108.596 1468.25C111.899 1474.01 117.346 1478.22 123.752 1479.95C130.159 1481.69 136.992 1480.81 142.747 1477.5L200.648 1444.05C208.393 1449.29 216.534 1453.93 224.998 1457.92V1525C224.998 1531.63 227.633 1537.99 232.321 1542.68C237.008 1547.36 243.368 1550 249.998 1550H349.998C356.628 1550 362.988 1547.36 367.675 1542.68C372.363 1537.99 374.998 1531.63 374.998 1525V1457.92C383.462 1453.9 391.602 1449.23 399.348 1443.95L457.249 1477.5C462.989 1480.81 469.817 1481.71 476.218 1480C482.625 1478.28 488.083 1474.09 491.401 1468.35L541.401 1381.87C544.714 1376.14 545.62 1369.33 543.917 1362.94C542.219 1356.54 538.047 1351.08 532.323 1347.75L474.396 1314.07H474.401C475.136 1304.77 475.136 1295.43 474.401 1286.12L532.32 1252.35ZM422.82 1276.77C425.685 1292.19 425.685 1308 422.82 1323.42C421.987 1328.37 422.695 1333.46 424.846 1338C426.992 1342.54 430.487 1346.31 434.846 1348.8L485.649 1378.33L460.649 1421.6L409.998 1392.3C405.67 1389.74 400.654 1388.58 395.638 1388.97C390.622 1389.36 385.852 1391.29 381.971 1394.5C369.924 1404.7 356.127 1412.61 341.247 1417.87C336.492 1419.61 332.388 1422.77 329.503 1426.93C326.612 1431.09 325.086 1436.03 325.122 1441.1V1500H274.997V1441.1C275.033 1436.03 273.507 1431.09 270.617 1426.93C267.731 1422.77 263.627 1419.61 258.872 1417.87C243.992 1412.61 230.195 1404.7 218.148 1394.5C214.268 1391.29 209.497 1389.36 204.481 1388.97C199.466 1388.58 194.45 1389.74 190.121 1392.3L139.372 1421.6L114.372 1378.33L165.175 1348.8C169.534 1346.31 173.024 1342.54 175.175 1338C177.326 1333.46 178.034 1328.37 177.195 1323.42C174.336 1308 174.336 1292.19 177.195 1276.77C178.07 1271.79 177.383 1266.67 175.237 1262.1C173.091 1257.53 169.581 1253.73 165.195 1251.22L114.373 1221.67L139.373 1178.4L189.998 1207.7C194.331 1210.26 199.352 1211.42 204.367 1211.02C209.388 1210.63 214.164 1208.7 218.05 1205.5C230.092 1195.3 243.894 1187.38 258.774 1182.12C263.55 1180.4 267.67 1177.25 270.576 1173.09C273.482 1168.93 275.029 1163.97 274.998 1158.9V1100H324.998V1158.9C324.962 1163.96 326.488 1168.91 329.378 1173.07C332.264 1177.23 336.368 1180.39 341.123 1182.12C356.003 1187.38 369.806 1195.3 381.847 1205.5C385.733 1208.7 390.509 1210.63 395.524 1211.02C400.545 1211.42 405.561 1210.26 409.899 1207.7L460.623 1178.39L485.623 1221.67L434.82 1251.22C430.435 1253.73 426.93 1257.53 424.784 1262.1C422.638 1266.67 421.95 1271.79 422.82 1276.77Z" fill="#2F2F2F"/>
<path d="M1550 50H1000V100H1117.5C1081.27 125.292 1051.66 158.948 1031.21 198.12C1010.75 237.287 1000.05 280.813 1000 325H1050C1050 265.328 1073.7 208.099 1115.9 165.907C1158.1 123.709 1215.33 100.005 1274.99 100.005C1334.66 100.005 1391.9 123.708 1434.09 165.907C1476.29 208.104 1499.99 265.333 1499.99 325H1549.99C1549.95 280.823 1539.27 237.307 1518.84 198.136C1498.4 158.969 1468.83 125.303 1432.61 100H1549.99L1550 50Z" fill="#2F2F2F"/>
<path d="M1251.6 116.224L1176.6 316.224C1175.55 319.031 1175.01 322.005 1175 325V625C1175 631.63 1177.64 637.99 1182.32 642.677C1187.01 647.365 1193.37 650 1200 650H1350C1356.63 650 1362.99 647.365 1367.68 642.677C1372.37 637.99 1375 631.631 1375 625V325C1375 322.005 1374.45 319.031 1373.4 316.224L1298.4 116.224C1296 109.839 1291.1 104.714 1284.82 102.036C1278.55 99.3538 1271.45 99.3538 1265.18 102.036C1258.91 104.713 1254 109.838 1251.6 116.224ZM1325 599.997H1225V349.997H1325V599.997ZM1313.93 299.997H1236.07L1275 196.195L1313.93 299.997Z" fill="#2F2F2F"/>
</mask>
<g mask="url(#mask0_3214_7868)">
<rect x="-4839" y="-198" width="7295" height="1848" fill="#D9D9D9"/>
<rect x="-4839" y="-198" width="7295" height="1848" fill="url(#paint0_radial_3214_7868)"/>
</g>
</g>
<defs>
<radialGradient id="paint0_radial_3214_7868" cx="0" cy="0" r="1" gradientUnits="userSpaceOnUse" gradientTransform="translate(-3679.07 1441.68) rotate(-13.0576) scale(5681.03 2374.9)">
<stop offset="0.0572917" stop-color="#A4128E"/>
<stop offset="0.947917" stop-color="#68E2D6"/>
</radialGradient>
<clipPath id="clip0_3214_7868">
<rect width="1600" height="1600" fill="white"/>
</clipPath>
</defs>
</svg>
