<svg width="1600" height="1600" viewBox="0 0 1600 1600" fill="none" xmlns="http://www.w3.org/2000/svg">
<g clip-path="url(#clip0_3214_7895)">
<rect width="1600" height="1600" fill="white"/>
<mask id="mask0_3214_7895" style="mask-type:alpha" maskUnits="userSpaceOnUse" x="-1600" y="0" width="4800" height="1600">
<path d="M53.3312 53.3345H373.317V0.0012207H26.6658C19.5938 0.0012207 12.8108 2.81238 7.81078 7.81234C2.81104 12.8123 0 19.5957 0 26.6682V373.335H53.3309L53.3312 53.3345Z" fill="#2F2F2F"/>
<path d="M1573.33 0.000282118H1226.68V53.3336H1546.67V373.333H1600V26.6669C1600 19.5947 1597.19 12.8114 1592.19 7.81112C1587.19 2.81116 1580.41 0.000282118 1573.33 0.000282118Z" fill="#2F2F2F"/>
<path d="M53.331 1226.67H0V1573.33C0 1580.41 2.81104 1587.19 7.81078 1592.19C12.8105 1597.19 19.5936 1600 26.6658 1600H373.317V1546.67H53.3312L53.331 1226.67Z" fill="#2F2F2F"/>
<path d="M1546.6 1546.67H1226.62V1600H1573.27C1580.34 1600 1587.12 1597.19 1592.12 1592.19C1597.12 1587.19 1599.94 1580.4 1599.94 1573.33V1226.67H1546.6L1546.6 1546.67Z" fill="#2F2F2F"/>
<path d="M1466.68 1040C1466.68 1035.2 1465.38 1030.49 1462.93 1026.36C1460.47 1022.24 1456.95 1018.85 1452.73 1016.56L1274.48 919.999L1452.73 823.437C1458.38 820.37 1462.74 815.365 1464.99 809.342C1467.24 803.315 1467.24 796.681 1464.99 790.653C1462.74 784.631 1458.38 779.625 1452.73 776.558L1274.48 679.997L1452.73 583.435C1458.38 580.368 1462.74 575.363 1464.99 569.341C1467.24 563.313 1467.24 556.68 1464.99 550.651C1462.74 544.629 1458.38 539.623 1452.73 536.557L812.762 189.89C804.829 185.585 795.252 185.585 787.318 189.89L147.346 536.557C141.697 539.623 137.341 544.629 135.086 550.651C132.836 556.679 132.836 563.312 135.086 569.341C137.341 575.363 141.697 580.368 147.346 583.435L325.6 679.997L147.346 776.558C141.697 779.625 137.341 784.631 135.086 790.653C132.836 796.681 132.836 803.314 135.086 809.342C137.341 815.365 141.697 820.37 147.346 823.437L325.6 919.999L147.346 1016.56C141.697 1019.63 137.341 1024.63 135.086 1030.65C132.836 1036.68 132.836 1043.32 135.086 1049.34C137.341 1055.37 141.697 1060.37 147.346 1063.44L787.318 1410.11C795.251 1414.41 804.827 1414.41 812.762 1410.11L1452.73 1063.44C1456.95 1061.15 1460.47 1057.76 1462.93 1053.64C1465.38 1049.51 1466.68 1044.8 1466.68 1040ZM800.04 243.655L1384.01 559.999L800.04 876.344L216.073 559.999L800.04 243.655ZM381.598 710.314L787.312 930.076V930.07C795.245 934.376 804.821 934.376 812.756 930.07L1218.47 710.308L1384.01 799.992L800.041 1116.34L216.075 799.992L381.598 710.314ZM800.04 1356.33L216.073 1039.98L381.612 950.329L787.326 1170.09C795.259 1174.4 804.835 1174.4 812.77 1170.09L1218.48 950.329L1384.02 1039.98L800.04 1356.33Z" fill="#2F2F2F"/>
</mask>
<g mask="url(#mask0_3214_7895)">
<rect x="-1961" y="-198" width="7295" height="1848" fill="#D9D9D9"/>
<rect x="-1961" y="-198" width="7295" height="1848" fill="url(#paint0_radial_3214_7895)"/>
</g>
</g>
<defs>
<radialGradient id="paint0_radial_3214_7895" cx="0" cy="0" r="1" gradientUnits="userSpaceOnUse" gradientTransform="translate(-801.067 1441.68) rotate(-13.0576) scale(5681.03 2374.9)">
<stop stop-color="#A4128E"/>
<stop offset="1" stop-color="#00CAB6"/>
</radialGradient>
<clipPath id="clip0_3214_7895">
<rect width="1600" height="1600" fill="white"/>
</clipPath>
</defs>
</svg>
