<?xml version="1.0" encoding="UTF-8"?>
<svg width="1200pt" height="1200pt" version="1.1" viewBox="0 0 1200 1200" xmlns="http://www.w3.org/2000/svg">
 <g fill="#2f2f2f">
  <path d="m1149.1 469.54-187.5-56.25c-3.6797-1.0977-7.6055-1.0391-11.25 0.16797l-163.12 54.375-181.88-54.543c-3.5117-1.0547-7.2539-1.0547-10.766 0l-181.88 54.543-163.12-54.375c-3.6445-1.207-7.5703-1.2656-11.25-0.16797l-187.5 56.25c-3.8633 1.1562-7.25 3.5273-9.6602 6.7656-2.4062 3.2344-3.707 7.1602-3.707 11.195v450c0 4.9727 1.9766 9.7422 5.4922 13.258 3.5156 3.5156 8.2852 5.4922 13.258 5.4922h95.625c-1.2617 6.1719-1.8906 12.453-1.875 18.75 0 33.492 17.867 64.441 46.875 81.191 29.008 16.746 64.742 16.746 93.75 0 29.008-16.75 46.875-47.699 46.875-81.191 0.015625-6.2969-0.61328-12.578-1.875-18.75h172.5c-1.2617 6.1719-1.8906 12.453-1.875 18.75 0 33.492 17.867 64.441 46.875 81.191 29.008 16.746 64.742 16.746 93.75 0 29.008-16.75 46.875-47.699 46.875-81.191 0.015625-6.2969-0.61328-12.578-1.875-18.75h172.5c-1.2617 6.1719-1.8906 12.453-1.875 18.75 0 33.492 17.867 64.441 46.875 81.191 29.008 16.746 64.742 16.746 93.75 0 29.008-16.75 46.875-47.699 46.875-81.191 0.015625-6.2969-0.61328-12.578-1.875-18.75h95.625c4.9727 0 9.7422-1.9766 13.258-5.4922 3.5156-3.5156 5.4922-8.2852 5.4922-13.258v-450c0-4.0352-1.3008-7.9609-3.707-11.195-2.4102-3.2383-5.7969-5.6094-9.6602-6.7656zm-840.51 449.21c-4.4102-0.003906-8.6797 1.5469-12.062 4.3789-3.3789 2.832-5.6523 6.7656-6.418 11.109-0.76953 4.3438 0.019531 8.8164 2.2227 12.637 4.9961 8.5312 7.6289 18.238 7.6328 28.125 0 20.098-10.723 38.664-28.125 48.715-17.402 10.047-38.848 10.047-56.25 0-17.402-10.051-28.125-28.617-28.125-48.715 0.003906-9.8867 2.6367-19.594 7.6328-28.125 2.2031-3.8203 2.9922-8.293 2.2227-12.637-0.76562-4.3438-3.0391-8.2773-6.418-11.109-3.3828-2.832-7.6523-4.3828-12.062-4.3789h-103.88v-417.3l168.45-50.531 150.3 50.102v100.86c-6.1719-1.2617-12.453-1.8906-18.75-1.875-33.492 0-64.441 17.867-81.191 46.875-16.746 29.008-16.746 64.742 0 93.75 16.75 29.008 47.699 46.875 81.191 46.875 6.2969 0.015625 12.578-0.61328 18.75-1.875v133.12zm469.5-176.36c-5.8008 3.3516-9.375 9.5391-9.375 16.238v160.12h-103.88c-4.4102-0.003906-8.6797 1.5469-12.062 4.3789-3.3789 2.832-5.6523 6.7656-6.418 11.109-0.76953 4.3438 0.019531 8.8164 2.2227 12.637 4.9961 8.5312 7.6289 18.238 7.6328 28.125 0 20.098-10.723 38.664-28.125 48.715-17.402 10.047-38.848 10.047-56.25 0-17.402-10.051-28.125-28.617-28.125-48.715 0.003906-9.8867 2.6367-19.594 7.6328-28.125 2.2031-3.8203 2.9922-8.293 2.2227-12.637-0.76562-4.3438-3.0391-8.2773-6.418-11.109-3.3828-2.832-7.6523-4.3828-12.062-4.3789h-103.88v-160.12c0.003906-4.4102-1.5469-8.6797-4.3789-12.062-2.832-3.3789-6.7656-5.6523-11.109-6.418-4.3438-0.76953-8.8164 0.019531-12.637 2.2227-8.5312 4.9961-18.238 7.6289-28.125 7.6328-20.098 0-38.664-10.723-48.715-28.125-10.047-17.402-10.047-38.848 0-56.25 10.051-17.402 28.617-28.125 48.715-28.125 9.8867 0.003906 19.594 2.6367 28.125 7.6328 3.8203 2.2031 8.293 2.9922 12.637 2.2227 4.3438-0.76562 8.2773-3.0391 11.109-6.418 2.832-3.3828 4.3828-7.6523 4.3789-12.062v-127.5l168.75-50.625 168.75 50.625v127.5c-0.003906 4.4102 1.5469 8.6797 4.3789 12.062 2.832 3.3789 6.7656 5.6523 11.109 6.418 4.3438 0.76953 8.8164-0.019531 12.637-2.2227 8.5312-4.9961 18.238-7.6289 28.125-7.6328 20.098 0 38.664 10.723 48.715 28.125 10.047 17.402 10.047 38.848 0 56.25-10.051 17.402-28.617 28.125-48.715 28.125-9.8867-0.003906-19.594-2.6367-28.125-7.6328-2.8516-1.6406-6.0859-2.5039-9.3789-2.5-3.2891 0.003906-6.5234 0.87109-9.3711 2.5195zm346.88 176.36h-103.88c-4.4102-0.003906-8.6797 1.5469-12.062 4.3789-3.3789 2.832-5.6523 6.7656-6.418 11.109-0.76953 4.3438 0.019531 8.8164 2.2227 12.637 4.9961 8.5312 7.6289 18.238 7.6328 28.125 0 20.098-10.723 38.664-28.125 48.715-17.402 10.047-38.848 10.047-56.25 0-17.402-10.051-28.125-28.617-28.125-48.715 0.003906-9.8867 2.6367-19.594 7.6328-28.125 2.2031-3.8203 2.9922-8.293 2.2227-12.637-0.76562-4.3438-3.0391-8.2773-6.418-11.109-3.3828-2.832-7.6523-4.3828-12.062-4.3789h-85.125v-133.12c6.1719 1.2617 12.453 1.8906 18.75 1.875 33.492 0 64.441-17.867 81.191-46.875 16.746-29.008 16.746-64.742 0-93.75-16.75-29.008-47.699-46.875-81.191-46.875-6.2969-0.015625-12.578 0.61328-18.75 1.875v-100.86l150.3-50.102 168.45 50.531z"/>
  <path d="m956.25 393.75c34.809 0 68.195-13.828 92.809-38.441 24.613-24.613 38.441-58 38.441-92.809s-13.828-68.195-38.441-92.809c-24.613-24.613-58-38.441-92.809-38.441s-68.195 13.828-92.809 38.441c-24.613 24.613-38.441 58-38.441 92.809 0.039062 34.797 13.879 68.16 38.484 92.766s57.969 38.445 92.766 38.484zm0-225c24.863 0 48.711 9.8789 66.293 27.457 17.578 17.582 27.457 41.43 27.457 66.293s-9.8789 48.711-27.457 66.293c-17.582 17.578-41.43 27.457-66.293 27.457s-48.711-9.8789-66.293-27.457c-17.578-17.582-27.457-41.43-27.457-66.293 0.03125-24.855 9.918-48.684 27.492-66.258 17.574-17.574 41.402-27.461 66.258-27.492z"/>
  <path d="m600 393.75c34.809 0 68.195-13.828 92.809-38.441 24.613-24.613 38.441-58 38.441-92.809s-13.828-68.195-38.441-92.809c-24.613-24.613-58-38.441-92.809-38.441s-68.195 13.828-92.809 38.441c-24.613 24.613-38.441 58-38.441 92.809 0.039062 34.797 13.879 68.16 38.484 92.766s57.969 38.445 92.766 38.484zm0-225c24.863 0 48.711 9.8789 66.293 27.457 17.578 17.582 27.457 41.43 27.457 66.293s-9.8789 48.711-27.457 66.293c-17.582 17.578-41.43 27.457-66.293 27.457s-48.711-9.8789-66.293-27.457c-17.578-17.582-27.457-41.43-27.457-66.293 0.03125-24.855 9.918-48.684 27.492-66.258 17.574-17.574 41.402-27.461 66.258-27.492z"/>
  <path d="m243.75 393.75c34.809 0 68.195-13.828 92.809-38.441 24.613-24.613 38.441-58 38.441-92.809s-13.828-68.195-38.441-92.809c-24.613-24.613-58-38.441-92.809-38.441s-68.195 13.828-92.809 38.441c-24.613 24.613-38.441 58-38.441 92.809 0.039062 34.797 13.879 68.16 38.484 92.766s57.969 38.445 92.766 38.484zm0-225c24.863 0 48.711 9.8789 66.293 27.457 17.578 17.582 27.457 41.43 27.457 66.293s-9.8789 48.711-27.457 66.293c-17.582 17.578-41.43 27.457-66.293 27.457s-48.711-9.8789-66.293-27.457c-17.578-17.582-27.457-41.43-27.457-66.293 0.03125-24.855 9.918-48.684 27.492-66.258 17.574-17.574 41.402-27.461 66.258-27.492z"/>
 </g>
</svg>
