<?xml version="1.0" encoding="UTF-8"?>
<svg width="1200pt" height="1200pt" version="1.1" viewBox="0 0 1200 1200" xmlns="http://www.w3.org/2000/svg">
 <g fill="#2f2f2f">
  <path d="m225 918.75c-14.918 0-29.227 5.9258-39.773 16.477-10.551 10.547-16.477 24.855-16.477 39.773s5.9258 29.227 16.477 39.773c10.547 10.551 24.855 16.477 39.773 16.477s29.227-5.9258 39.773-16.477c10.551-10.547 16.477-24.855 16.477-39.773s-5.9258-29.227-16.477-39.773c-10.547-10.551-24.855-16.477-39.773-16.477zm0 75c-4.9727 0-9.7422-1.9766-13.258-5.4922-3.5156-3.5156-5.4922-8.2852-5.4922-13.258s1.9766-9.7422 5.4922-13.258c3.5156-3.5156 8.2852-5.4922 13.258-5.4922s9.7422 1.9766 13.258 5.4922c3.5156 3.5156 5.4922 8.2852 5.4922 13.258s-1.9766 9.7422-5.4922 13.258c-3.5156 3.5156-8.2852 5.4922-13.258 5.4922z"/>
  <path d="m605.49 286.74 26.512 26.512 75-75 0.003906 0.003906c3.5117-3.5195 5.4883-8.2852 5.4883-13.258s-1.9766-9.7383-5.4883-13.258l-75-75-26.516 26.516 42.996 42.992h-235.99v37.5h235.99z"/>
  <path d="m800.76 961.74-75-75-26.512 26.512 42.992 42.996h-310.99v37.5h310.99l-42.992 42.992 26.512 26.512 75-75v0.003906c3.5117-3.5195 5.4883-8.2852 5.4883-13.258s-1.9766-9.7383-5.4883-13.258z"/>
  <path d="m525 768.75h-67.238l380.5-380.49-26.512-26.512-380.5 380.49v-67.238h-37.5v112.5c0 4.9727 1.9766 9.7422 5.4922 13.258 3.5156 3.5156 8.2852 5.4922 13.258 5.4922h112.5z"/>
  <path d="m1150.2 694.88-206.25-75c-5.75-2.0938-12.16-1.25-17.172 2.2617-5.0117 3.5117-7.9922 9.2461-7.9922 15.363v337.5h-18.75c-4.1836 0-8.2461 1.4023-11.539 3.9766-3.2969 2.5742-5.6367 6.1797-6.6484 10.234l-15.207 60.789h-22.855c-4.1797 0-8.2383 1.3984-11.535 3.9688s-5.6367 6.1719-6.6523 10.227l-18.75 75c-1.4023 5.6016-0.14844 11.535 3.4062 16.09 3.5547 4.5547 9.0078 7.2148 14.781 7.2148h225c5.7734 0 11.227-2.6602 14.781-7.2148 3.5547-4.5547 4.8086-10.488 3.4062-16.09l-18.75-75c-1.0156-4.0547-3.3555-7.6562-6.6523-10.227s-7.3555-3.9688-11.535-3.9688h-22.875l-15.188-60.789c-1.0117-4.0547-3.3516-7.6602-6.6484-10.234-3.293-2.5742-7.3555-3.9766-11.539-3.9766h-18.75v-156.68l195.26-88.762c4.5469-2.0664 8.0781-5.8633 9.8164-10.543 1.7383-4.6836 1.5352-9.8633-0.55859-14.395-2.0977-4.5352-5.9141-8.043-10.605-9.75zm-133.58 392.62 9.375 37.5h-176.94l9.375-37.5zm-56.25-75 9.375 37.5h-64.461l9.375-37.5zm-4.0859-235.37v-112.86l137.93 50.102z"/>
  <path d="m93.75 361.63v50.867c0 4.9727 1.9766 9.7422 5.4922 13.258 3.5156 3.5156 8.2852 5.4922 13.258 5.4922v56.25c0 4.1836 1.4023 8.2461 3.9766 11.539 2.5742 3.2969 6.1797 5.6367 10.234 6.6484l75 18.75c2.9883 0.74609 6.1094 0.74609 9.0938 0l75-18.75c4.0547-1.0156 7.6562-3.3555 10.227-6.6523s3.9688-7.3555 3.9688-11.535v-56.25c4.9727 0 9.7422-1.9766 13.258-5.4922 3.5156-3.5156 5.4922-8.2852 5.4922-13.258v-50.832c-0.22656-16.953 5.543-33.441 16.293-46.555 27.844-32.895 42.047-75.195 39.699-118.23-2.3516-43.031-21.078-83.535-52.336-113.2-31.262-29.668-72.688-46.25-115.79-46.348-43.098-0.097657-84.598 16.301-115.99 45.824-31.395 29.527-50.305 69.945-52.848 112.96-2.543 43.023 11.469 85.387 39.164 118.41 10.953 13.242 16.898 29.914 16.801 47.102zm168.75 111.17-56.25 14.062-56.25-14.062v-41.551h112.5zm-75-266.55c0-4.9727 1.9766-9.7422 5.4922-13.258 3.5156-3.5156 8.2852-5.4922 13.258-5.4922s9.7422 1.9766 13.258 5.4922c3.5156 3.5156 5.4922 8.2852 5.4922 13.258s-1.9766 9.7422-5.4922 13.258c-3.5156 3.5156-8.2852 5.4922-13.258 5.4922s-9.7422-1.9766-13.258-5.4922c-3.5156-3.5156-5.4922-8.2852-5.4922-13.258zm-111.49-16.613c3.7734-29.066 17.141-56.039 37.98-76.648 20.844-20.609 47.965-33.676 77.07-37.125 37.309-4.5078 74.738 7.3594 102.64 32.531 25.5 22.758 41.105 54.578 43.484 88.672 2.3828 34.098-8.6445 67.773-30.734 93.859-16.496 19.859-25.422 44.926-25.199 70.742v32.082h-56.25v-134.76c16.816-5.9453 29.816-19.512 35.035-36.566 5.2227-17.055 2.043-35.578-8.5625-49.918-10.605-14.336-27.387-22.797-45.223-22.797s-34.617 8.4609-45.223 22.797c-10.605 14.34-13.785 32.863-8.5625 49.918 5.2188 17.055 18.219 30.621 35.035 36.566v134.76h-56.25v-32.062c0.097656-26.02-8.9648-51.242-25.594-71.25-23.586-27.973-34.336-64.57-29.625-100.86z"/>
  <path d="m399.24 939.26c4.293-2.4961 7.4219-6.5898 8.6953-11.391 1.2773-4.7969 0.59766-9.9062-1.8867-14.203l-37.5-64.855c-2.4766-4.3203-6.5625-7.4766-11.367-8.7773-4.8047-1.3008-9.9297-0.64062-14.246 1.8398l-43.406 25.086c-5.8203-3.9258-11.93-7.4062-18.281-10.406v-50.305c0-4.9727-1.9766-9.7422-5.4922-13.258-3.5156-3.5156-8.2852-5.4922-13.258-5.4922h-75c-4.9727 0-9.7422 1.9766-13.258 5.4922-3.5156 3.5156-5.4922 8.2852-5.4922 13.258v50.305c-6.3516 3.0234-12.465 6.5273-18.281 10.484l-43.406-25.164c-4.3047-2.4844-9.4258-3.1602-14.227-1.875-4.8047 1.2891-8.8984 4.4297-11.387 8.7383l-37.5 64.855c-2.4844 4.2969-3.1641 9.4062-1.8867 14.203 1.2734 4.7969 4.4023 8.8945 8.6953 11.391l43.426 25.258h-0.003906c-0.55078 6.9766-0.55078 13.984 0 20.961l-43.422 25.332c-4.293 2.4961-7.4219 6.5898-8.6953 11.391-1.2773 4.7969-0.59766 9.9062 1.8867 14.203l37.5 64.855c2.4766 4.3203 6.5625 7.4766 11.367 8.7773 4.8047 1.3008 9.9297 0.64062 14.246-1.8398l43.426-25.086c5.8086 3.9297 11.914 7.4102 18.262 10.406v50.305c0 4.9727 1.9766 9.7422 5.4922 13.258 3.5156 3.5156 8.2852 5.4922 13.258 5.4922h75c4.9727 0 9.7422-1.9766 13.258-5.4922 3.5156-3.5156 5.4922-8.2852 5.4922-13.258v-50.305c6.3477-3.0195 12.453-6.5234 18.262-10.484l43.426 25.164c4.3047 2.4844 9.4258 3.1602 14.227 1.875 4.8047-1.2891 8.8984-4.4297 11.387-8.7383l37.5-64.855c2.4844-4.2969 3.1641-9.4062 1.8867-14.203-1.2734-4.7969-4.4023-8.8945-8.6953-11.391l-43.445-25.258h0.003906c0.55078-6.9766 0.55078-13.984 0-20.961zm-82.125 18.32c2.1484 11.562 2.1484 23.422 0 34.988-0.625 3.7109-0.09375 7.5273 1.5195 10.934 1.6094 3.4023 4.2305 6.2305 7.5 8.0977l38.102 22.145-18.75 32.457-37.988-21.977c-3.2461-1.9219-7.0078-2.793-10.77-2.5-3.7617 0.29688-7.3398 1.7461-10.25 4.1484-9.0352 7.6484-19.383 13.586-30.543 17.531-3.5664 1.3008-6.6445 3.6719-8.8086 6.793-2.168 3.1172-3.3125 6.8281-3.2852 10.625v44.176h-37.594v-44.176c0.027344-3.7969-1.1172-7.5078-3.2852-10.625-2.1641-3.1211-5.2422-5.4922-8.8086-6.793-11.16-3.9453-21.508-9.8828-30.543-17.531-2.9102-2.4023-6.4883-3.8516-10.25-4.1484-3.7617-0.29297-7.5234 0.57813-10.77 2.5l-38.062 21.977-18.75-32.457 38.102-22.145c3.2695-1.8672 5.8867-4.6953 7.5-8.0977 1.6133-3.4062 2.1445-7.2227 1.5156-10.934-2.1445-11.566-2.1445-23.426 0-34.988 0.65625-3.7344 0.14062-7.5742-1.4688-11.004-1.6094-3.4297-4.2422-6.2812-7.5312-8.1602l-38.117-22.16 18.75-32.457 37.969 21.973c3.25 1.9219 7.0156 2.793 10.777 2.4961 3.7656-0.29297 7.3477-1.7422 10.262-4.1445 9.0312-7.6484 19.383-13.59 30.543-17.531 3.582-1.2891 6.6719-3.6562 8.8516-6.7734 2.1797-3.1211 3.3398-6.8398 3.3164-10.645v-44.176h37.5v44.176c-0.027344 3.7969 1.1172 7.5078 3.2852 10.625 2.1641 3.1211 5.2422 5.4922 8.8086 6.793 11.16 3.9414 21.512 9.8828 30.543 17.531 2.9141 2.4023 6.4961 3.8516 10.258 4.1445 3.7656 0.29688 7.5273-0.57422 10.781-2.4961l38.043-21.977 18.75 32.457-38.102 22.164c-3.2891 1.8789-5.918 4.7305-7.5273 8.1602s-2.125 7.2695-1.4727 11.004z"/>
  <path d="m1162.5 37.5h-412.5v37.5h88.125c-27.176 18.969-49.379 44.211-64.719 73.59-15.34 29.375-23.371 62.02-23.406 95.16h37.5c0-44.754 17.777-87.676 49.426-119.32 31.648-31.648 74.57-49.426 119.32-49.426s87.676 17.777 119.32 49.426c31.648 31.648 49.426 74.57 49.426 119.32h37.5c-0.027344-33.133-8.0391-65.77-23.363-95.148-15.328-29.375-37.508-54.625-64.668-73.602h88.031z"/>
  <path d="m938.7 87.168-56.25 150c-0.78906 2.1055-1.1953 4.3359-1.1992 6.582v225c0 4.9727 1.9766 9.7422 5.4922 13.258 3.5156 3.5156 8.2852 5.4922 13.258 5.4922h112.5c4.9727 0 9.7422-1.9766 13.258-5.4922 3.5156-3.5156 5.4922-8.2852 5.4922-13.258v-225c-0.003906-2.2461-0.41016-4.4766-1.1992-6.582l-56.25-150c-1.8008-4.7891-5.4805-8.6328-10.184-10.641-4.707-2.0117-10.027-2.0117-14.734 0-4.7031 2.0078-8.3828 5.8516-10.184 10.641zm55.051 362.83h-75v-187.5h75zm-8.3047-225h-58.391l29.195-77.852z"/>
 </g>
</svg>
