<?xml version="1.0" encoding="UTF-8"?>
<svg width="1200pt" height="1200pt" version="1.1" viewBox="0 0 1200 1200" xmlns="http://www.w3.org/2000/svg">
 <g fill="#2f2f2f">
  <path d="m75 75h225v-37.5h-243.75c-4.9727 0-9.7422 1.9766-13.258 5.4922-3.5156 3.5156-5.4922 8.2852-5.4922 13.258v243.75h37.5z"/>
  <path d="m1143.8 37.5h-243.75v37.5h225v225h37.5v-243.75c0-4.9727-1.9766-9.7422-5.4922-13.258-3.5156-3.5156-8.2852-5.4922-13.258-5.4922z"/>
  <path d="m75 900h-37.5v243.75c0 4.9727 1.9766 9.7422 5.4922 13.258 3.5156 3.5156 8.2852 5.4922 13.258 5.4922h243.75v-37.5h-225z"/>
  <path d="m1125 1125h-225v37.5h243.75c4.9727 0 9.7422-1.9766 13.258-5.4922 3.5156-3.5156 5.4922-8.2852 5.4922-13.258v-243.75h-37.5z"/>
  <path d="m1068.8 768.75c0-3.375-0.91016-6.6875-2.6367-9.5898-1.7266-2.8984-4.2031-5.2812-7.168-6.8906l-125.34-67.895 125.34-67.895c3.9727-2.1562 7.0352-5.6758 8.6211-9.9102 1.582-4.2383 1.582-8.9023 0-13.141-1.5859-4.2344-4.6484-7.7539-8.6211-9.9102l-125.34-67.895 125.34-67.895c3.9727-2.1562 7.0352-5.6758 8.6211-9.9102 1.582-4.2383 1.582-8.9023 0-13.141-1.5859-4.2344-4.6484-7.7539-8.6211-9.9102l-450-243.75c-5.5781-3.0273-12.312-3.0273-17.891 0l-450 243.75c-3.9727 2.1562-7.0352 5.6758-8.6211 9.9102-1.582 4.2383-1.582 8.9023 0 13.141 1.5859 4.2344 4.6484 7.7539 8.6211 9.9102l125.34 67.895-125.34 67.895c-3.9727 2.1562-7.0352 5.6758-8.6211 9.9102-1.582 4.2383-1.582 8.9023 0 13.141 1.5859 4.2344 4.6484 7.7539 8.6211 9.9102l125.34 67.895-125.34 67.895c-3.9727 2.1562-7.0352 5.6758-8.6211 9.9102-1.582 4.2383-1.582 8.9023 0 13.141 1.5859 4.2344 4.6484 7.7539 8.6211 9.9102l450 243.75c5.5781 3.0273 12.312 3.0273 17.891 0l450-243.75c2.9648-1.6094 5.4414-3.9922 7.168-6.8906 1.7266-2.9023 2.6367-6.2148 2.6367-9.5898zm-468.75-559.93 410.62 222.43-410.62 222.43-410.62-222.43zm-294.23 328.12 285.28 154.52v-0.003906c5.5781 3.0273 12.312 3.0273 17.891 0l285.28-154.52 116.4 63.059-410.62 222.43-410.62-222.43zm294.23 454.23-410.62-222.43 116.4-63.039 285.28 154.52c5.5781 3.0273 12.312 3.0273 17.891 0l285.28-154.52 116.4 63.039z"/>
 </g>
</svg>
