<svg width="49" height="50" viewBox="0 0 49 50" fill="none" xmlns="http://www.w3.org/2000/svg">
  <defs>
    <style type="text/css"><![CDATA[

        path {
            stroke-dasharray: 1000;
            stroke-dashoffset: 1000;
            animation: dash 30s ease-out forwards, jitter .5s infinite;
            opacity: 0;
            &:nth-child(4) {
            animation-delay: 2s;
            }
        }

        @keyframes dash {
        to {
            stroke-dashoffset: 0;
            opacity:100;
        }
        }

    ]]></style>
  </defs>
<path d="M2 43.2857C3.8622 43.5099 6.63996 45.7827 8.55838 46.4603C14.0356 48.3949 19.5245 49 25.3333 49C29.3895 49 35.6163 44.3322 37 41M3 22C3 21.6879 3.38167 21.3755 3.6531 21.1831C5.62137 19.7877 8.40036 19.2887 10.8728 18.7512C13.6691 18.1433 16.3752 17.4004 19.2561 17.061C23.1505 16.6023 27.0878 16.3437 31 16M1.04578 22C1.04578 20.4437 0.844686 18.698 1.28543 17.2089C2.04791 14.6326 3.40135 12.1853 4.98405 10.1788C6.03667 8.84434 7.15111 7.63303 8.37112 6.50257C10.1968 4.81089 12.0266 3.06007 14.1986 1.98325L14.2156 1.97483C15.0001 1.5859 15.8262 1.17636 16.683 1.07571C17.7694 0.948079 18.8836 1.02042 19.9742 1.02042C21.6232 1.02042 23.3488 1.05367 24.959 1.51796C25.3715 1.63692 25.8875 2.26863 26.1413 2.64664C26.4294 3.07593 26.7183 3.48957 27 3.92274M20.5461 15.6909C20.6444 15.1504 21.189 14.6473 21.5149 14.2377C22.6114 12.8597 23.7482 11.5725 25.0493 10.3804C27.7517 7.90438 30.5851 5.91646 33.9299 4.38822C37.2597 2.86686 40.8699 1.89291 44.5509 2.16357C45.6636 2.24539 46.6357 2.93568 46.9549 3.98456C47.6037 6.11637 46.9934 7.96861 45.726 9.80633C44.7589 11.2085 43.6203 12.4139 42.2544 13.4304C40.5114 14.7275 38.3609 15.3339 36.5313 16.4982M17.9875 28.9368C18.7331 28.3836 19.8386 28.2153 20.7275 28.0878C22.14 27.8852 23.5545 27.8514 24.9774 27.8514M8.10297 27.653C6.97533 27.9102 5.9005 30.4341 5.54344 31.2962C4.70227 33.3271 4.81355 36.0156 6.04592 37.841C7.57847 40.1111 10.0368 40.3216 12.5468 39.6948C15.0152 39.0785 18.0688 37.8792 18.7651 35.02C19.1954 33.2527 19.0761 31.3175 18.0584 29.8131C16.814 27.9734 15.5098 27.4535 13.4654 26.6616C11.5917 25.9357 8.07874 25.2612 7.25502 27.798M27.395 26.2777C27.1013 26.3438 26.815 26.9032 26.6508 27.102C25.9616 27.9365 25.2884 28.7072 24.8057 29.6848C24.0077 31.3009 23.6632 33.4561 24.4259 35.1722C25.3487 37.2489 27.0663 37.9406 29.1781 37.9984C32.0159 38.076 34.8849 36.0759 36.5 34C37.6281 32.5501 38.1836 30.0513 37.9693 28.1461C37.7755 26.4237 35.8713 25.5356 34.4807 24.9432C32.4678 24.0856 30.4383 23.7837 28.2633 24.1581C27.8081 24.2365 26.2787 24.4083 26.2787 25.006" stroke="black" stroke-width="2" stroke-linecap="round"/>
</svg>
