<svg width="49" height="51" viewBox="0 0 49 51" fill="none" xmlns="http://www.w3.org/2000/svg">
  <defs>
    <style type="text/css"><![CDATA[

        path {
            stroke-dasharray: 1000;
            stroke-dashoffset: 1000;
            animation: dash 30s ease-out forwards;
            opacity: 0;
            
        }
        path&:nth-of-type(4) {
            animation-delay: 5s;
        }

        @keyframes dash {
        to {
            stroke-dashoffset: 0;
            opacity:100;
        }
        }

    ]]></style>
  </defs>

<path d="M45.5 3.26448C34.7 1.26448 25.3333 11.0978 22 16.2645C36 11.7694 37.8333 15.0582 37 17.2645C44.3333 13.4311 52 4.46818 45.5 3.26448Z" fill="#083855"/>
<ellipse cx="29.5" cy="31.5" rx="7.5" ry="6.5" fill="#CFFFFD"/>
<ellipse cx="11.5" cy="32.5" rx="7.5" ry="6.5" fill="#CFFFFD"/>
<path d="M23.2145 13.5165C27.4483 8.22371 35.6918 1.1574 45 2.88114C51.5 4.08484 43.8333 13.0478 36.5 16.8811C37.2616 14.8649 35.796 11.9445 24.8526 14.8873C26.2244 15.5213 28.3982 15.8853 31.642 15.8829C31.7615 15.8817 31.8809 15.8811 32 15.8811C31.8792 15.8822 31.7599 15.8828 31.642 15.8829C17.7122 16.0166 1.00026 23.8726 1 22.8811C0.997813 14.3664 9.5 4.88114 16.5 1.88114C22.1 -0.51886 25.8333 2.54781 27 4.38114C24.4957 7.76312 21.9313 11.2769 23.2145 13.5165Z" fill="#009DFF"/>
<path d="M2 43.2857C3.8622 43.5099 6.63996 45.7827 8.55838 46.4603C14.0356 48.3949 19.5245 49 25.3333 49C29.3895 49 35.6163 44.3322 37 41" stroke="black" stroke-width="4" stroke-linecap="round"/>
<path d="M3 22C3 21.6879 3.38167 21.3755 3.6531 21.1831C5.62137 19.7877 8.40036 19.2887 10.8728 18.7512C13.6691 18.1433 16.3752 17.4004 19.2561 17.061C23.1505 16.6023 27.0878 16.3437 31 16" stroke="black" stroke-width="2" stroke-linecap="round"/>
<path d="M1.04578 22C1.04578 20.4437 0.844686 18.698 1.28543 17.2089C2.04791 14.6326 3.40135 12.1853 4.98405 10.1788C6.03667 8.84434 7.15111 7.63303 8.37112 6.50257C10.1968 4.81089 12.0266 3.06007 14.1986 1.98325C14.9882 1.59182 15.82 1.17709 16.683 1.07571C17.7694 0.948079 18.8836 1.02042 19.9742 1.02042C21.6232 1.02042 23.3488 1.05367 24.959 1.51796C25.3715 1.63692 25.8875 2.26863 26.1413 2.64664C26.4294 3.07593 26.7183 3.48957 27 3.92274" stroke="black" stroke-width="2" stroke-linecap="round"/>
<path d="M20.5461 15.6909C20.6444 15.1504 21.189 14.6473 21.5149 14.2377C22.6114 12.8597 23.7482 11.5725 25.0493 10.3804C27.7517 7.90438 30.5851 5.91646 33.9299 4.38822C37.2597 2.86686 40.8699 1.89291 44.5509 2.16357C45.6636 2.24539 46.6357 2.93568 46.9549 3.98456C47.6037 6.11637 46.9934 7.96861 45.726 9.80633C44.7589 11.2085 43.6204 12.4139 42.2544 13.4304C40.5114 14.7275 38.3609 15.3339 36.5313 16.4982" stroke="black" stroke-width="2" stroke-linecap="round"/>
<path d="M7.10297 27.653C5.97533 27.9102 4.9005 30.4341 4.54344 31.2962C3.70227 33.3271 3.81355 36.0156 5.04592 37.841C6.57847 40.1111 9.03678 40.3216 11.5468 39.6948C14.0152 39.0785 17.0688 37.8792 17.7651 35.02C18.1954 33.2527 18.0761 31.3175 17.0584 29.8131C15.814 27.9734 14.5098 27.4535 12.4654 26.6616C10.5917 25.9357 7.07874 25.2612 6.25502 27.798" stroke="black" stroke-width="2" stroke-linecap="round"/>
<path d="M10.3892 31.1992C9.34594 31.1992 8.77457 31.9617 8.77457 32.9754C8.77457 34.7624 10.2931 34.9537 11.672 34.1953C12.8517 33.5465 12.828 32.9559 12.0039 31.9258C11.8295 31.7078 10.6972 31.5634 10.4072 31.5311C9.91901 31.4769 9.90483 31.7784 9.90483 32.168" stroke="#231200" stroke-width="2" stroke-linecap="round"/>
<path d="M26.395 26.2777C26.1013 26.3438 25.815 26.9032 25.6508 27.102C24.9616 27.9365 24.2884 28.7072 23.8057 29.6848C23.0077 31.3009 22.6632 33.4561 23.4259 35.1722C24.3487 37.2489 26.0663 37.9406 28.1781 37.9984C31.0159 38.076 33.8849 36.0759 35.5 34C36.6281 32.5501 37.1836 30.0513 36.9693 28.1461C36.7755 26.4237 34.8713 25.5356 33.4807 24.9432C31.4678 24.0856 29.4383 23.7837 27.2633 24.1581C26.8081 24.2365 25.2787 24.4083 25.2787 25.006" stroke="black" stroke-width="2" stroke-linecap="round"/>
<path d="M28.3192 31.4467C27.8049 31.511 27.9822 32.9081 28.1577 33.1869C28.478 33.6957 29.5311 33.2049 29.898 33.0614C30.5744 32.7967 31.7433 32.5092 31.71 31.644C31.6882 31.0767 31.0242 30.7875 30.5797 30.6394" stroke="#231200" stroke-width="2" stroke-linecap="round"/>
<path d="M16.9875 28.9368C17.7331 28.3836 18.8386 28.2153 19.7275 28.0878C21.14 27.8852 22.5545 27.8514 23.9774 27.8514" stroke="black" stroke-width="2" stroke-linecap="round"/>
<ellipse cx="29.5" cy="31.5" rx="7.5" ry="6.5" fill="#CFFFFD"/>
<ellipse cx="11.5" cy="32.5" rx="7.5" ry="6.5" fill="#CFFFFD"/>
<path d="M23.2145 13.5165C27.4483 8.22371 35.6918 1.1574 45 2.88114C51.5 4.08484 43.8333 13.0478 36.5 16.8811C37.2616 14.8649 35.796 11.9445 24.8526 14.8873C26.2244 15.5213 28.3982 15.8853 31.642 15.8829C31.7615 15.8817 31.8809 15.8811 32 15.8811C31.8792 15.8822 31.7599 15.8828 31.642 15.8829C17.7122 16.0166 1.00026 23.8726 1 22.8811C0.997813 14.3664 9.5 4.88114 16.5 1.88114C22.1 -0.51886 25.8333 2.54781 27 4.38114C24.4957 7.76312 21.9313 11.2769 23.2145 13.5165Z" fill="#009DFF"/>
<path d="M2 43.2857C3.8622 43.5099 6.63996 45.7827 8.55838 46.4603C14.0356 48.3949 19.5245 49 25.3333 49C29.3895 49 35.6163 44.3322 37 41" stroke="black" stroke-width="4" stroke-linecap="round"/>
<path d="M3 22C3 21.6879 3.38167 21.3755 3.6531 21.1831C5.62137 19.7877 8.40036 19.2887 10.8728 18.7512C13.6691 18.1433 16.3752 17.4004 19.2561 17.061C23.1505 16.6023 27.0878 16.3437 31 16" stroke="black" stroke-width="2" stroke-linecap="round"/>
<path d="M1.04578 22C1.04578 20.4437 0.844686 18.698 1.28543 17.2089C2.04791 14.6326 3.40135 12.1853 4.98405 10.1788C6.03667 8.84434 7.15111 7.63303 8.37112 6.50257C10.1968 4.81089 12.0266 3.06007 14.1986 1.98325C14.9882 1.59182 15.82 1.17709 16.683 1.07571C17.7694 0.948079 18.8836 1.02042 19.9742 1.02042C21.6232 1.02042 23.3488 1.05367 24.959 1.51796C25.3715 1.63692 25.8875 2.26863 26.1413 2.64664C26.4294 3.07593 26.7183 3.48957 27 3.92274" stroke="black" stroke-width="2" stroke-linecap="round"/>
<path d="M20.5461 15.6909C20.6444 15.1504 21.189 14.6473 21.5149 14.2377C22.6114 12.8597 23.7482 11.5725 25.0493 10.3804C27.7517 7.90438 30.5851 5.91646 33.9299 4.38822C37.2597 2.86686 40.8699 1.89291 44.5509 2.16357C45.6636 2.24539 46.6357 2.93568 46.9549 3.98456C47.6037 6.11637 46.9934 7.96861 45.726 9.80633C44.7589 11.2085 43.6204 12.4139 42.2544 13.4304C40.5114 14.7275 38.3609 15.3339 36.5313 16.4982" stroke="black" stroke-width="2" stroke-linecap="round"/>
<path d="M10.3892 31.1992C9.34594 31.1992 8.77457 31.9617 8.77457 32.9754C8.77457 34.7624 10.2931 34.9537 11.672 34.1953C12.8517 33.5465 12.828 32.9559 12.0039 31.9258C11.8295 31.7078 10.6972 31.5634 10.4072 31.5311C9.91901 31.4769 9.90483 31.7784 9.90483 32.168" stroke="#231200" stroke-width="2" stroke-linecap="round"/>
<path d="M28.3192 31.4467C27.8049 31.511 27.9822 32.9081 28.1577 33.1869C28.478 33.6957 29.5311 33.2049 29.898 33.0614C30.5744 32.7967 31.7433 32.5092 31.71 31.644C31.6882 31.0767 31.0242 30.7875 30.5797 30.6394" stroke="#231200" stroke-width="2" stroke-linecap="round"/>
<path d="M16.9875 28.9368C17.7331 28.3836 18.8386 28.2153 19.7275 28.0878C21.14 27.8852 22.5545 27.8514 23.9774 27.8514" stroke="black" stroke-width="2" stroke-linecap="round"/>
<path d="M44.3933 4.16687C37.319 2.90499 31.1835 9.10922 29 12.3691C35 11.5 36 10.5 38.8255 13C43.6291 10.5814 48.6511 4.92633 44.3933 4.16687Z" fill="#083855" fill-opacity="0.2"/>
<path d="M7.10297 27.653C5.97533 27.9102 4.9005 30.4341 4.54344 31.2962C3.70227 33.3271 3.81355 36.0156 5.04592 37.841C6.57847 40.1111 9.03678 40.3216 11.5468 39.6948C14.0152 39.0785 17.0688 37.8792 17.7651 35.02C18.1954 33.2527 18.0761 31.3175 17.0584 29.8131C15.814 27.9734 14.5098 27.4535 12.4654 26.6616C10.5917 25.9357 7.07874 25.2612 6.25502 27.798" stroke="black" stroke-width="2" stroke-linecap="round"/>
<path d="M26.395 26.2777C26.1013 26.3438 25.815 26.9032 25.6508 27.102C24.9616 27.9365 24.2884 28.7072 23.8057 29.6848C23.0077 31.3009 22.6632 33.4561 23.4259 35.1722C24.3487 37.2489 26.0663 37.9406 28.1781 37.9984C31.0159 38.076 33.8849 36.0759 35.5 34C36.6281 32.5501 37.1836 30.0513 36.9693 28.1461C36.7755 26.4237 34.8713 25.5356 33.4807 24.9432C31.4678 24.0856 29.4383 23.7837 27.2633 24.1581C26.8081 24.2365 25.2787 24.4083 25.2787 25.006" stroke="black" stroke-width="2" stroke-linecap="round"/>
<path d="M19.4812 9.7852C19.5056 9.69393 19.9775 6.78364 20.7509 7.48671C21.0528 7.76116 20.9133 8.23301 21.3747 7.91357C21.9968 7.48291 22.8967 7.38443 23.6185 7.22403" stroke="white" stroke-width="4" stroke-linecap="round"/>
</svg>
